<svg fill="none" height="24" viewBox="0 0 19 24" width="19" xmlns="http://www.w3.org/2000/svg" xmlns:xlink="http://www.w3.org/1999/xlink"><clipPath id="a"><path d="m0 0h19v24h-19z"/></clipPath><g clip-path="url(#a)" fill="#fff"><path d="m12.651 4.47302h-10.39357c-1.269806 0-2.25743 1.05812-2.25743 2.30862v14.90986c0 1.2505.987624 2.3086 2.25743 2.3086h10.39357c1.2228 0 2.2574-1.01 2.2574-2.3086v-14.90986c0-1.2505-.9876-2.30862-2.2574-2.30862zm.8465 17.21848c0 .4809-.3762.8657-.8465.8657h-10.39357c-.4703 0-.84654-.3848-.84654-.8657v-14.90986c0-.48096.37624-.86573.84654-.86573h10.39357c.4703 0 .8465.38477.8465.86573z"/><path d="m15.2847 0h-9.87626c-1.45792 0-2.63366 1.2024-2.63366 2.69339 0 .38477.32921.72144.70545.72144.37623 0 .70544-.33667.70544-.72144 0-.67335.51733-1.2505 1.22277-1.2505h9.87626c1.2698 0 2.3044 1.05811 2.3044 2.35671v15.4389c0 .6733-.5173 1.2024-1.1757 1.2024-.3762 0-.7055.3367-.7055.7214 0 .3848.3293.7215.7055.7215 1.4109 0 2.5866-1.2024 2.5866-2.6453v-15.4389c0-2.06814-1.646-3.7996-3.7153-3.7996z"/></g></svg>