<svg width="17" height="20" viewBox="0 0 17 20" fill="none" xmlns="http://www.w3.org/2000/svg">
<path d="M14.4857 4.79688H2.23226C1.56735 4.79688 1.09241 5.3668 1.1874 6.03172L3.18215 18.5701C3.32463 19.33 3.94205 19.9 4.74945 19.9H12.111C12.8709 19.9 13.5358 19.33 13.6783 18.5701L15.6731 6.03172C15.6731 5.3668 15.1506 4.79688 14.4857 4.79688Z" fill="#ACACC8"/>
<path d="M16.0055 2.13723H11.7785L11.3511 0.854893C11.1611 0.332458 10.6862 0 10.1637 0H6.55418C6.03174 0 5.5568 0.332458 5.36683 0.854893L4.93938 2.13723H0.712411C0.332458 2.13723 0 2.4222 0 2.84964C0 3.27709 0.332458 3.56205 0.712411 3.56205H16.0055C16.3854 3.56205 16.7179 3.22959 16.7179 2.84964C16.7179 2.46969 16.3854 2.13723 16.0055 2.13723Z" fill="#ACACC8"/>
</svg>
