<svg fill="none" height="20" viewBox="0 0 17 20" width="17" xmlns="http://www.w3.org/2000/svg"><g fill="#acacc8"><path d="m14.4857 4.79688h-12.25344c-.66491 0-1.13985.56992-1.04486 1.23484l1.99475 12.53838c.14248.7599.7599 1.3299 1.5673 1.3299h7.36155c.7599 0 1.4248-.57 1.5673-1.3299l1.9948-12.53838c0-.66492-.5225-1.23484-1.1874-1.23484z"/><path d="m16.0055 2.13723h-4.227l-.4274-1.282337c-.19-.522435-.6649-.854893-1.1874-.854893h-3.60952c-.52244 0-.99738.332458-1.18735.854893l-.42745 1.282337h-4.226969c-.379953 0-.712411.28497-.712411.71241 0 .42745.332458.71241.712411.71241h15.293089c.3799 0 .7124-.33246.7124-.71241s-.3325-.71241-.7124-.71241z"/></g></svg>