<svg fill="none" height="73" viewBox="0 0 67 73" width="67" xmlns="http://www.w3.org/2000/svg" xmlns:xlink="http://www.w3.org/1999/xlink"><linearGradient id="a" gradientUnits="userSpaceOnUse" x1="34.6044" x2="34.6044" y1="1.62646" y2="72.0017"><stop offset="0" stop-color="#6266ea"/><stop offset="1" stop-color="#1a205a"/></linearGradient><path d="m67 33.5629c0 14.0217-8.5848 26.0364-20.7741 31.0596-3.9237 1.6155-8.2216 2.5088-12.7231 2.5088-3.7421 0-7.3357-.6121-10.6925-1.7479-.6604-.2206-1.3098-.4632-1.9481-.7279-1.6179-.6616-3.1753-1.4446-4.6556-2.3434-3.5715-2.1614-6.70828-4.9735-9.2452-8.2707-.33569-.4356-.66037-.8768-.97405-1.3289-.17059-.2426-.33569-.4852-.49528-.7333-3.47244-5.2878-5.49207-11.6177-5.49207-18.4163 0-18.5376 14.9959-33.5629 33.4972-33.5629 9.658 0 18.3638 4.0968 24.4777 10.6528.3412.3694.6769.7444 1.0071 1.1248.2532.2978.5063.601.7484.9098.6824.8602 1.3263 1.7589 1.9206 2.6852.5173.8051 1.0016 1.6321 1.4528 2.4813.0385.0717.0771.1489.1156.2205 2.4158 4.6317 3.7806 9.9029 3.7806 15.4885z" fill="#d2d3f8"/><path d="m63.0156 19.359-16.7899 45.2633-1.9316 5.2106c-.6383 1.7203-2.5534 2.6026-4.2759 1.9574l-17.2136-6.4126-1.9481-.7278c-1.6179-.6617-3.1753-1.4446-4.6556-2.3434-3.5715-2.1614-6.70825-4.9735-9.24517-8.2708-.33568-.4356-.66036-.8767-.97404-1.3288l18.95811-51.08044 36.1222 13.45384c.2146.0772.4128.1764.5943.2922.9466.59 1.5299 1.6101 1.5684 2.7018.0165.4246-.0495.8602-.2091 1.2847z" fill="url(#a)"/><g fill="#e9d59a"><path d="m23.2724 42.87c-.1101-.204-.3192-.3584-.6218-.4687l-1.0016-.3749-.9906 2.6687.5449.204.3081-.8271.4458.1654c.3357.1268.6108.1379.8199.0386.2091-.0992.3742-.3088.4898-.6341.1101-.3088.1156-.5679.0055-.7719zm-.5723.5734c-.0495.1268-.0991.2206-.1541.2702-.055.0551-.1266.0827-.2146.0827-.0881 0-.2311-.0386-.4293-.1103l-.2201-.0827.3357-.8987.2697.0992c.2146.0827.3522.1709.4127.2647.055.0992.055.2205 0 .3749z"/><path d="m24.4831 43.085-1.871 2.3378.5393.1985.3742-.4742 1.0236.3805-.0221.6065.5559.2095.1045-2.9995zm.0881 1.9077-.7209-.2701.7704-.9705z"/><path d="m27.6197 46.41c-.0991.2701-.2642.4411-.4898.5183s-.5118.0551-.853-.0772c-.2366-.0883-.4237-.204-.5723-.3474-.1431-.1434-.2366-.3198-.2861-.5404l.5338-.1654c.0275.1103.0605.1985.1045.2647.0385.0662.0936.1213.1596.1764.066.0552.1486.0993.2476.1324.1486.0551.2697.0716.3743.0551.099-.0221.1705-.0827.2091-.1875.022-.0606.0275-.1158.011-.1654s-.0441-.0992-.0936-.1544c-.0495-.0496-.1321-.1213-.2641-.2095-.1266-.0882-.2422-.1764-.3522-.2592-.1101-.0827-.1981-.1709-.2642-.2646-.066-.0938-.11-.1985-.1265-.3088s0-.2371.0495-.3749c.0935-.2537.2531-.4191.4733-.4963.2256-.0772.4952-.0606.8144.0607.4623.1709.7264.4521.8035.8381l-.5338.1709c-.0331-.1378-.0826-.2536-.1541-.3363-.0716-.0827-.1706-.1489-.2972-.193s-.2366-.0607-.3302-.0441c-.0935.0165-.1596.0716-.1981.1709-.033.0882-.0165.1654.0495.2426.0661.0772.1926.1764.3797.2978.1046.0716.2037.1433.2972.2205.0991.0772.1761.1599.2422.2536.066.0938.1045.1985.121.3143.022.1213.0055.2537-.055.4081z"/><path d="m29.9861 47.2923c-.099.2702-.2641.4411-.4897.5183-.2257.0772-.5118.0551-.853-.0772-.2366-.0882-.4237-.204-.5723-.3474-.1431-.1433-.2367-.3198-.2862-.5403l.5338-.1655c.0275.1103.0605.1986.1046.2647.0385.0662.0935.1213.1596.1765.066.0551.1485.0992.2476.1323.1486.0551.2696.0717.3742.0551.0991-.022.1706-.0827.2091-.1874.022-.0607.0275-.1158.011-.1655-.0165-.0496-.044-.0992-.0935-.1543-.0496-.0497-.1321-.1214-.2642-.2096-.1265-.0882-.2421-.1764-.3522-.2591-.11-.0827-.1981-.171-.2641-.2647-.0661-.0937-.1101-.1985-.1266-.3088-.0165-.1102 0-.2371.0495-.3749.0936-.2536.2532-.4191.4733-.4963.2256-.0772.4953-.0606.8145.0607.4622.1709.7264.4521.8034.8381l-.5338.1709c-.033-.1378-.0825-.2536-.1541-.3363-.0715-.0827-.1706-.1489-.2971-.193-.1266-.0441-.2367-.0607-.3302-.0441-.0936.0165-.1596.0717-.1981.1709-.0331.0882-.0165.1654.0495.2426s.1926.1765.3797.2978c.1046.0717.2036.1433.2972.2205.099.0772.1761.1599.2421.2537.066.0937.1046.1985.1211.3143.022.1158.0055.2536-.0551.408z"/><path d="m32.7597 46.4042c-.11-.2041-.3192-.3584-.6218-.4687l-1.0016-.375-.9905 2.6687.5448.204.3081-.827.4403.1654c.3412.1268.6108.1378.8199.0386.2092-.0993.3742-.3088.4898-.6341.1211-.3088.1266-.5679.011-.7719zm-.5668.5734c-.0495.1268-.0991.2206-.1541.2702-.055.0551-.1266.0827-.2146.0827-.0881 0-.2311-.0386-.4292-.1103l-.2202-.0827.3357-.8988.2697.0993c.2146.0827.3522.1709.4127.2702.055.0937.055.2205 0 .3694z"/><path d="m35.3074 47.4631c-.0935-.3088-.3411-.5403-.7374-.6892-.3962-.1489-.7264-.1324-1.0015.0386-.2752.1709-.4953.4797-.6604.9263-.1651.4411-.1981.8161-.1046 1.1303.0936.3143.3412.5404.732.6893.3742.1378.6988.1323.9795-.0276s.5063-.4687.6824-.9318c.1706-.4467.2036-.8216.11-1.1359zm-.6658.9208c-.1156.3143-.2477.5294-.3907.6396-.1431.1103-.3192.1269-.5338.0497-.2092-.0772-.3357-.2096-.3688-.386-.0385-.1765.0055-.4246.1211-.7389s.2477-.5293.3907-.6396c.1431-.1103.3192-.1268.5338-.0496s.3357.2095.3742.386c.0331.1764-.011.4245-.1265.7388z"/><path d="m37.8006 48.2513c-.1155-.182-.3411-.3364-.6823-.4632l-.9686-.3584-.9905 2.6687.5448.204.3742-1.009.2751.1047.3027 1.2627.6219.2316-.3137-1.3399c.1871.0276.3577-.0055.5008-.1047.143-.0993.2586-.2647.3466-.4908.1046-.2867.1046-.5183-.011-.7057zm-.5448.5183c-.0385.1047-.0825.1709-.1265.2095-.0496.0386-.1101.0551-.1816.0551-.0716 0-.1706-.022-.2917-.0717l-.3962-.1488.2641-.7113.4238.1544c.1596.0606.2641.1213.3136.1985.0441.0716.0441.1764-.0055.3143z"/><path d="m39.5397 49.255-.8035 2.1725-.5448-.1985.809-2.1725-.82-.3088.1816-.4962 2.1847.816-.1871.4963z"/><path d="m28.9957 53.2085c-.1541.4246-.6273.6397-1.0511.4797-.4237-.1599-.6383-.6285-.4787-1.0531.1595-.4246.6273-.6396 1.051-.4797.4238.1599.6384.6341.4788 1.0531z" opacity=".9"/><path d="m27.7629 54.2008c-.5558-.204-.886-.7388-.8805-1.2957l-1.9536-.7279-.6053 1.6322 6.301 2.3433.6054-1.6321-1.9536-.7278c-.3632.4301-.9631.612-1.5134.408z"/><path d="m25.8478 49.6963-.6054 1.6321 1.9536.7278c.3577-.4301.9576-.612 1.5079-.408.5558.204.886.7333.8805 1.2958l1.9536.7278.6053-1.6321z"/><path d="m45.3343 28.2475.0055-.0055c-.011-.0276-.1871-.5459-.1981-.5735l-.0055.0055c-2.0362-5.387-8.1941-7.6752-13.2405-4.9293l-.0055-.0056c-.0275.0166-.4952.2923-.5227.3088l.0055.0055c-3.9072 2.4427-5.6957 7.3169-4.309 11.706h-.0055c.011.0275.1871.5403.1981.5734l.0056-.0055c1.9315 5.3264 8.3096 7.6367 13.1798 4.9073l.0055.0055c.0276-.0165.5559-.3253.5228-.3032v-.0055c3.9127-2.4206 5.7287-7.2728 4.364-11.6839zm-.6604 6.0708-3.3844-1.2572c.4293-1.2792.5668-2.597.5338-3.8487.9961-.0772 2.0527-.3198 2.9552-.7058.5833 1.9299.5228 3.948-.1046 5.8117zm-.088-6.3961c-.9136.3915-1.8656.6065-2.7901.6782-.1651-2.2387-.842-4.2236-1.3373-5.4202 1.9646 1.0422 3.3844 2.7625 4.1274 4.742zm-8.783 3.7329-1.007 2.7128c-1.1392-.3915-2.3553-.601-3.61-.5845-.0441-1.202.077-2.4592.4842-3.6722zm-3.9292-2.1063c.4788-1.1579 1.1832-2.1725 1.9811-3.0437.886.7885 1.9371 1.4557 3.1368 1.9409l-.9851 2.6466zm4.4906 2.3213 4.1383 1.5384c-.4843 1.1799-1.2107 2.211-2.0307 3.0932-.8805-.7829-1.9205-1.4391-3.1147-1.9243zm.2146-.5679.9795-2.6467c1.2217.4191 2.4599.601 3.6376.5845.0385 1.1855-.0881 2.4151-.4843 3.6061zm4.584-2.6687c-1.1501.0165-2.2947-.171-3.3954-.5459l1.9041-5.1389c.4623 1.0311 1.2987 3.2145 1.4913 5.6848zm-3.9567-.761c-1.1391-.4631-2.1077-1.0807-2.9221-1.8085 1.7555-1.7424 3.8081-2.8452 4.8317-3.3304zm1.1667-5.4642c-1.1557.579-2.9662 1.6431-4.5456 3.2256-.6658-.6672-1.2437-1.4612-1.6729-2.3434 1.8931-1.0366 4.0833-1.3784 6.2185-.8822zm-6.7468 1.1965c.4017.8216 1.0236 1.7038 1.7775 2.4702-.8475.9264-1.5959 2.0071-2.1077 3.2642l-3.3844-1.2571c.7704-1.8858 2.0637-3.4296 3.7146-4.4773zm-3.9237 5.0342 3.3844 1.2626c-.4347 1.3013-.5723 2.6412-.5283 3.9149-.9795.0772-2.0306.3088-2.9386.6892-.6109-1.9795-.5338-4.0196.0825-5.8667zm.1101 6.4402c.875-.3639 1.794-.59 2.779-.6617.1706 2.2111.842 4.174 1.3318 5.3595-1.9591-1.0421-3.3679-2.7404-4.1108-4.6978zm3.4064-.6893c1.1336-.011 2.2452.1655 3.3624.5459l-1.8821 5.0728c-.4513-1.0256-1.2767-3.176-1.4803-5.6187zm3.9292.7554c1.1226.4577 2.0856 1.0697 2.9001 1.7865-1.7445 1.7148-3.7751 2.8066-4.7822 3.2863zm-1.1392 5.4091c1.1392-.5734 2.9277-1.621 4.5016-3.1815.6713.6782 1.2381 1.4447 1.6729 2.3214-1.9041 1.02-4.0723 1.3398-6.1745.8601zm6.6973-1.1744c-.4127-.8271-1.0181-1.6873-1.7775-2.4482.864-.9373 1.6289-2.0346 2.1517-3.3083l3.3844 1.2627c-.7649 1.8747-2.0692 3.4351-3.7586 4.4938z"/></g></svg>