<svg fill="none" height="86" viewBox="0 0 232 86" width="232" xmlns="http://www.w3.org/2000/svg"><g fill="#acacc8"><path d="m43.4904 0c-23.8474 0-42.852705 19.0053-42.852705 42.7316 0 23.6053 18.884205 42.7316 42.731605 42.7316 23.6053 0 42.7316-19.0052 42.7316-42.7316-.121-23.6053-19.0052-42.7316-42.6105-42.7316zm-.1211 81.7106c-21.6684 0-38.85792-17.4316-38.85792-38.8579 0-21.6685 17.31052-38.97901 38.97902-38.97901 21.5474 0 38.7368 17.43161 38.8579 38.85791-.1211 21.6685-17.5526 38.979-38.979 38.979z"/><path d="m47.1222 55.9263c-.3632.2421-.7263.4842-1.0895.6053-3.0263 1.5737-6.1737 2.1789-9.5632 1.5737-6.6579-1.2105-11.1368-5.2053-12.7105-11.7421-1.5737-6.4158.4842-11.9843 5.6895-15.979 5.4474-4.1158 11.2579-4.3579 17.3105-1.0895 2.179 1.2106 3.9948.8474 4.8421-.8473.9685-1.6948.2421-3.3895-1.9368-4.6-7.8684-4.1158-15.6158-4.1158-23 .8473-7.5053 5.0842-10.6527 12.3474-9.3211 21.3053.4842 3.1474 1.9369 6.2948 3.1474 9.6842-2.179 2.3-4.8421 4.8421-6.1737 8.7158.8474-.2421 1.0895-.2421 1.4526-.3631.4842-.2421.9684-.4842 1.4527-.7263 4.3579-2.3 8.5947-2.4211 13.1947-.4843 6.779 2.9053 13.5579 2.3 19.9737-1.5736 1.8158-1.0895 2.179-2.7843 1.3316-4.3579-.9684-1.5737-2.7842-1.9369-4.6-.9685z"/><path d="m67.0956 42.9737c-.4842-5.3263-4.8421-9.8052-10.5316-9.8052-6.6579 0-10.6526 5.6894-10.5315 10.5315-.1211 5.8106 4.8421 11.1369 11.3789 10.6527 5.4474-.4842 10.1685-5.3263 9.6842-11.379zm-7.3842 2.7842v1.4527h-5.6895c0-.7263.2421-1.3316.6053-1.9369.3632-.6052.8474-1.0894 1.4526-1.4526.6053-.3632 1.2106-.8474 1.6948-1.2105.2421-.2421.3631-.4842.4842-.9684 0-.7264-.3632-1.2106-1.2105-1.2106-.8474 0-1.3316.6053-1.3316 1.6948h-.8474c-.4842 0-.7263-.2421-.6053-.9685.2422-1.3315 1.2106-2.0579 2.7843-2.0579 1.8157 0 2.6631.8474 2.7842 2.5422 0 .6052-.2421 1.0894-.4842 1.4526-.2421.3631-1.0895 1.0895-2.4211 2.0579-.3632.2421-.6053.4842-.6053.7263h3.3895z"/><path d="m56.0799 30.9895c.7263.4842 1.5737 0 1.5737-.9684 0-.9685 0-1.8158 0-2.7843 0-.9684 0-1.8157 0-2.7842 0-.7263-.4842-1.0894-1.0895-1.0894-.6052 0-.9684.4842-.9684 1.0894v5.6895c0 .2421.2421.7263.4842.8474z"/><path d="m69.6377 29.2948c-1.3316 1.3316-2.6632 2.6632-3.9948 3.9947-.2421.2421-.3631.7263-.3631.9685.121.8473 1.0895 1.0894 1.8158.3631.7263-.6053 1.3316-1.3316 1.9368-1.9368.6053-.6053 1.3316-1.3316 1.9369-2.0579.4842-.4842.4842-1.0895.121-1.5737-.3631-.1211-.9684-.1211-1.4526.2421z"/><path d="m69.5166 43.3369c-.4842.6053 0 1.5737.9684 1.5737h2.7843 2.7842c.7263 0 1.2105-.4842 1.2105-1.0895 0-.6052-.4842-.9684-1.0895-.9684-1.9368 0-3.7526 0-5.6895 0-.3631 0-.7263.1211-.9684.4842z"/><path d="m67.2167 52.9001c-.2421-.2421-.7263-.3632-.9684-.3632-.8474.1211-1.0895 1.0895-.3632 1.8158.6053.7263 1.3316 1.3316 1.9369 1.9369.7263.6052 1.3316 1.3315 2.0579 1.9368.4842.4842 1.0895.4842 1.5737.1211.3631-.3632.3631-1.0895 0-1.4527-1.5737-1.3316-2.9053-2.6631-4.2369-3.9947z"/><path d="m56.5641 56.2895c-.6052 0-.9684.3631-.9684 1.0895v5.4473c0 .3632.2421.7264.4842.9685s.7263.2421.9684.121c.4842-.121.6053-.6053.6053-.9684 0-.9684 0-1.8158 0-2.7842s0-1.8158 0-2.7842c0-.7264-.4842-1.0895-1.0895-1.0895z"/><path d="m116.364 30.1421c-2.905 0-5.084.6053-6.658 1.8158-1.573-1.2105-3.752-1.9368-6.657-1.9368-6.2952 0-9.5636 3.1473-9.5636 9.4421v13.0737h5.6894v-14.1632c0-2.3 1.3312-3.3895 3.7522-3.3895 2.422 0 3.753 1.0895 3.874 3.3895v14.1632h5.569v-14.0422c0-2.3 1.331-3.3894 3.752-3.3894s3.753 1.0894 3.874 3.3894v11.379c0 1.8158.968 2.6632 2.784 2.7842h2.905v-13.0737c.242-6.2947-2.905-9.4421-9.321-9.4421z"/><path d="m131.98 24.0895h-2.905v4.3579h5.568v-1.6947c0-1.8158-.847-2.6632-2.663-2.6632z"/><path d="m131.98 30.3842h-2.905v22.1527h5.568v-19.4895c0-1.8158-.847-2.6632-2.663-2.6632z"/><path d="m147.838 38.7369c-2.906-.6053-4.358-1.4527-4.358-2.5421 0-1.0895 1.089-1.6948 3.268-1.6948 1.816 0 3.027.6053 3.39 1.4527.363.8473 1.21 1.3315 2.421 1.3315h3.51c-.121-2.3-.968-4.1158-2.663-5.4473-1.695-1.2106-3.995-1.9369-6.779-1.9369-5.084.1211-8.837 2.3-8.837 7.1421 0 3.5106 2.542 5.6895 7.506 6.5369 3.873.7263 5.689 1.5737 5.689 2.7842 0 1.4526-1.21 2.0579-3.51 2.0579-2.785 0-4.479-.8474-4.6-3.2684h-5.69c0 2.5421.847 4.4789 2.542 5.6894 1.453 1.3316 3.874 1.9369 7.021 1.9369 5.932 0 10.169-2.0579 10.169-7.5053 0-1.4526-.485-2.9052-1.574-3.9947-1.332-.8474-3.753-1.8158-7.505-2.5421z"/><path d="m169.264 38.7369c-2.905-.6053-4.358-1.4527-4.358-2.5421 0-1.0895 1.09-1.6948 3.268-1.6948 1.816 0 3.027.6053 3.39 1.4527.363.8473 1.21 1.3315 2.421 1.3315h3.511c-.121-2.3-.969-4.1158-2.664-5.4473-1.694-1.2106-3.994-1.9369-6.779-1.9369-5.084.1211-8.836 2.3-8.836 7.1421 0 3.5106 2.542 5.6895 7.505 6.5369 3.874.7263 5.689 1.5737 5.689 2.7842 0 1.4526-1.21 2.0579-3.51 2.0579-2.784 0-4.479-.8474-4.6-3.2684h-5.69c0 2.5421.848 4.4789 2.542 5.6894 1.453 1.3316 3.874 1.9369 7.021 1.9369 5.932 0 10.169-2.0579 10.169-7.5053 0-1.4526-.484-2.9052-1.574-3.9947-1.331-.8474-3.752-1.8158-7.505-2.5421z"/><path d="m183.548 24.0895h-2.905v4.3579h5.569v-1.6947c.121-1.8158-.727-2.6632-2.664-2.6632z"/><path d="m183.548 30.3842h-2.905v22.1527h5.568v-19.4895c.122-1.8158-.847-2.6632-2.663-2.6632z"/><path d="m199.285 30.0211c-6.658 0-10.047 3.8736-10.047 11.5 0 7.6263 3.389 11.5 10.047 11.5s10.169-3.8737 10.169-11.5c0-7.6264-3.39-11.5-10.169-11.5zm0 18.0368c-2.905 0-4.358-2.1789-4.358-6.5368s1.453-6.6579 4.358-6.6579 4.237 2.1789 4.237 6.4158c0 4.6-1.332 6.7789-4.237 6.7789z"/><path d="m221.68 30.0211c-6.295 0-9.563 3.1473-9.563 9.4421v13.0737h5.689v-14.1632c0-2.3 1.332-3.3895 3.753-3.3895s3.752 1.0895 3.874 3.3895v11.379c0 1.8157.968 2.6631 2.784 2.7842h2.905v-12.9527c0-6.4158-3.147-9.5631-9.442-9.5631z"/></g></svg>