<svg width="66" height="65" viewBox="0 0 66 65" fill="none" xmlns="http://www.w3.org/2000/svg">
<path d="M66 32.4973C66 50.4464 51.2279 64.9947 33.0027 64.9947C26.7686 64.9947 20.9357 63.2916 15.9647 60.3339C12.4465 58.2411 9.35655 55.5183 6.85749 52.3257C6.34793 51.6797 5.86546 51.0123 5.4101 50.3236C1.98949 45.209 0 39.0801 0 32.4973C0 14.5483 14.7721 0 32.9973 0C42.511 0 51.087 3.96674 57.1096 10.3146C57.4457 10.6723 57.7764 11.0353 58.1017 11.4037C58.351 11.692 58.6004 11.9856 58.8389 12.2846C60.0966 13.8435 61.2079 15.5146 62.162 17.2817C64.6122 21.8251 66 27.0037 66 32.4973Z" fill="#D2D4F8"/>
<path d="M40.039 42.3315C40.039 42.3315 40.9822 44.8782 41.0256 46.4958C41.0256 46.4958 41.1611 48.6046 40.4889 49.7845C40.4889 49.7845 41.1286 46.4531 39.0686 43.063C39.0686 43.063 39.7408 42.3636 40.039 42.3315Z" fill="url(#paint0_radial)"/>
<path d="M50.198 11.019L43.5898 11.6971C42.9664 11.7611 42.5056 12.311 42.5653 12.925L43.644 24.7078L62.7637 23.4318L62.4547 20.3032C56.6381 20.1751 51.7538 16.2938 50.198 11.019Z" fill="url(#paint1_linear)"/>
<path d="M60.281 9.98887L50.198 11.0246C51.7538 16.2993 56.6381 20.1753 62.4602 20.3088L61.544 11.0086C61.4844 10.3786 60.9206 9.91947 60.281 9.98887Z" fill="url(#paint2_linear)"/>
<path d="M60.281 9.98887L50.198 11.0246C51.7538 16.2993 56.6381 20.1753 62.4602 20.3088L61.544 11.0086C61.4844 10.3786 60.9206 9.91947 60.281 9.98887Z" fill="url(#paint3_linear)"/>
<path d="M59.7335 20.3673L58.8119 12.0708C58.7685 11.6597 58.3945 11.3608 57.9771 11.4035L44.5927 12.7435C44.1753 12.7862 43.8717 13.1493 43.9097 13.5604L44.6469 21.5846C44.6849 21.9957 45.0481 22.3 45.4655 22.268L59.0342 21.1949C59.4678 21.1628 59.7822 20.7891 59.7335 20.3673Z" fill="url(#paint4_radial)"/>
<path opacity="0.44" d="M49.6939 12.2367L56.3292 11.5693L51.0763 21.8252L45.8342 22.2416L49.6939 12.2367Z" fill="url(#paint5_linear)"/>
<path opacity="0.43" d="M56.9199 11.5106L51.5803 21.7878L52.5615 21.7077L57.9825 11.4038L56.9199 11.5106Z" fill="url(#paint6_linear)"/>
<path d="M47.9646 22.3909L61.4139 21.3872C61.4139 21.3872 62.5686 21.3872 62.2596 21.7342C61.9506 22.0813 58.0854 23.5388 58.0854 23.5388L42.0991 24.2755L43.0749 22.6952L47.9646 22.3909Z" fill="url(#paint7_radial)"/>
<path d="M48.6205 22.5244C48.6205 22.5244 48.7939 22.5511 48.8753 22.6312C48.9566 22.7113 48.5717 22.8821 48.0025 22.9729C47.4333 23.069 47.1622 22.9622 47.1189 22.9462C47.0755 22.9302 46.9508 22.8127 47.1948 22.7326L48.6205 22.5244Z" fill="url(#paint8_radial)"/>
<path d="M48.5988 22.3906L48.6313 22.5935C48.6367 22.6255 48.6205 22.6629 48.5879 22.6736C48.447 22.7377 48.0242 22.8978 47.2761 22.8551C47.2381 22.8551 47.2056 22.8231 47.2056 22.791L47.1731 22.5455L48.5988 22.3906Z" fill="url(#paint9_radial)"/>
<path d="M48.5989 22.3908C48.6097 22.4655 48.2953 22.5669 47.8996 22.6097C47.5039 22.6524 47.1786 22.6257 47.1678 22.5509C47.1569 22.4762 47.4713 22.3747 47.8671 22.332C48.2628 22.284 48.5881 22.3107 48.5989 22.3908Z" fill="url(#paint10_radial)"/>
<path d="M58.004 36.5226L61.0723 36.293L59.8689 22.332L51.6995 22.9567C55.364 26.4109 57.733 31.1945 58.004 36.5226Z" fill="url(#paint11_radial)"/>
<path d="M35.621 38.2042L58.004 36.5225C57.733 31.1943 55.364 26.4108 51.6995 22.9565L35.0789 24.2325L35.621 38.2042Z" fill="url(#paint12_radial)"/>
<path d="M35.621 38.2042L58.004 36.5225C57.733 31.1943 55.364 26.4108 51.6995 22.9565L35.0789 24.2325L35.621 38.2042Z" fill="url(#paint13_radial)"/>
<path d="M37.5076 26.8543C38.7978 26.9558 40.0934 26.881 41.3781 26.817C42.7008 26.7475 44.0236 26.6515 45.3408 26.5447C46.7069 26.4326 48.0676 26.3098 49.4337 26.1923C50.8702 26.0695 52.3122 25.9574 53.7541 25.8613C55.2829 25.7599 56.8061 25.6531 58.3403 25.589C58.5354 25.5784 58.7306 25.573 58.9257 25.557C59.1914 25.541 59.1968 25.1459 58.9257 25.1459C58.1451 25.1352 57.3591 25.1726 56.5785 25.1993C55.8195 25.226 55.0606 25.258 54.3071 25.2954C52.8543 25.3648 51.4069 25.4823 49.9595 25.589C48.588 25.6905 47.2165 25.8026 45.845 25.904C44.5169 26.0055 43.1942 26.1069 41.866 26.1977C41.2155 26.2404 40.565 26.2831 39.9199 26.3151C39.2748 26.3471 38.6297 26.3792 37.99 26.4486C37.8328 26.4646 37.6756 26.4753 37.5184 26.4966C37.2745 26.5233 37.2691 26.833 37.5076 26.8543Z" fill="white"/>
<path d="M56.2205 24.3607C56.6108 24.3714 57.0391 24.4728 57.4186 24.3394C57.5487 24.2966 57.6408 24.1899 57.6408 24.0511C57.6408 23.9283 57.5487 23.7895 57.4186 23.7628C56.9903 23.6773 56.5675 23.8375 56.1555 23.9069C56.0416 23.9283 55.9712 24.0564 55.9874 24.1632C56.0037 24.2753 56.1013 24.3554 56.2205 24.3607Z" fill="white"/>
<path d="M58.5027 24.3182C58.5786 24.3609 58.6382 24.3769 58.7195 24.3876C58.752 24.3929 58.7846 24.3982 58.8225 24.3929C58.9038 24.3822 58.9689 24.3715 59.0339 24.3182C59.0881 24.2754 59.1478 24.2114 59.1586 24.142V24.1366C59.1098 24.2007 59.061 24.2648 59.0068 24.3288C59.0231 24.3182 59.0339 24.3075 59.0502 24.3021C59.2399 24.1793 59.2399 23.9231 59.0502 23.8056C59.0339 23.795 59.0231 23.7843 59.0068 23.7789C59.0556 23.843 59.1044 23.9071 59.1586 23.9711V23.9658C59.1478 23.9391 59.1369 23.9124 59.1261 23.8857C59.1044 23.8483 59.0773 23.8163 59.0393 23.7896C58.9743 23.7416 58.9147 23.7256 58.8279 23.7149C58.7954 23.7095 58.7575 23.7202 58.7249 23.7202C58.687 23.7256 58.6545 23.7309 58.6165 23.7416C58.5732 23.7522 58.5406 23.7736 58.5081 23.7896C58.2967 23.9017 58.2967 24.2114 58.5027 24.3182Z" fill="white"/>
<path d="M40.4294 25.3008C41.3509 25.2847 42.2671 25.2634 43.1832 25.2207C43.6386 25.1993 44.0939 25.1726 44.5493 25.1406C44.7824 25.1246 45.0101 25.1139 45.2432 25.0979C45.4763 25.0819 45.7365 25.0819 45.9587 25.0018C46.0617 24.9644 46.1376 24.879 46.1376 24.7669C46.1376 24.6654 46.0617 24.5587 45.9587 24.532C45.7256 24.4839 45.4763 24.5053 45.2432 24.5213C45.0101 24.5373 44.7824 24.5533 44.5493 24.564C44.0939 24.5907 43.6386 24.6227 43.1832 24.6601C42.2617 24.7348 41.3455 24.8363 40.4294 24.9377C40.3318 24.9484 40.2505 25.0125 40.2505 25.1139C40.2505 25.2153 40.3318 25.3008 40.4294 25.3008Z" fill="white"/>
<path d="M51.5804 36.7203C55.1761 36.7203 58.0909 33.8496 58.0909 30.3084C58.0909 26.7672 55.1761 23.8965 51.5804 23.8965C47.9847 23.8965 45.0698 26.7672 45.0698 30.3084C45.0698 33.8496 47.9847 36.7203 51.5804 36.7203Z" fill="url(#paint14_radial)"/>
<path d="M50.4689 36.2663C53.382 36.2663 55.7435 33.9405 55.7435 31.0716C55.7435 28.2027 53.382 25.877 50.4689 25.877C47.5558 25.877 45.1943 28.2027 45.1943 31.0716C45.1943 33.9405 47.5558 36.2663 50.4689 36.2663Z" fill="white"/>
<path d="M50.4474 36.3947C53.3605 36.3947 55.722 34.069 55.722 31.2001C55.722 28.3311 53.3605 26.0054 50.4474 26.0054C47.5344 26.0054 45.1729 28.3311 45.1729 31.2001C45.1729 34.069 47.5344 36.3947 50.4474 36.3947Z" fill="url(#paint15_radial)"/>
<path d="M38.5972 20.3675C38.2448 20.4689 38.3912 20.266 37.8382 20.597C37.2799 20.928 37.2094 20.928 37.0197 19.919C36.83 18.91 36.2282 17.8689 36.3692 18.5789C36.5101 19.2837 36.6348 20.5703 36.4451 21.0455C36.2553 21.5206 35.4639 21.6808 35.4476 20.6291C35.4314 19.5773 35.0953 19.4919 35.079 20.1112C35.0627 20.7305 35.2796 23.1436 35.2796 23.1436L37.1335 22.7379L39.1718 20.4849L39.7085 19.935C39.5946 20.0098 39.5404 20.0364 39.5404 20.0364C39.5404 20.0364 39.2639 19.8603 38.8628 19.5773C39.0363 19.9083 38.9441 20.266 38.5972 20.3675Z" fill="#FBA2B4"/>
<path d="M38.5972 20.3675C38.2448 20.4689 38.3912 20.266 37.8382 20.597C37.2799 20.928 37.2094 20.928 37.0197 19.919C36.83 18.91 36.2282 17.8689 36.3692 18.5789C36.5101 19.2837 36.6348 20.5703 36.4451 21.0455C36.2553 21.5206 35.4639 21.6808 35.4476 20.6291C35.4314 19.5773 35.0953 19.4919 35.079 20.1112C35.0627 20.7305 35.2796 23.1436 35.2796 23.1436L37.1335 22.7379L39.1718 20.4849L39.7085 19.935C39.5946 20.0098 39.5404 20.0364 39.5404 20.0364C39.5404 20.0364 39.2639 19.8603 38.8628 19.5773C39.0363 19.9083 38.9441 20.266 38.5972 20.3675Z" fill="url(#paint16_radial)"/>
<path d="M36.0817 47.2219C36.0817 47.2219 36.4991 47.1899 36.6184 46.3997C36.7376 45.6096 36.6184 45.1611 36.6184 45.1611C36.6184 45.1611 35.2523 46.0687 34.7157 46.2876C34.179 46.5065 35.1981 47.1472 35.1981 47.1472C35.1981 47.1472 35.7673 47.3287 36.0817 47.2219Z" fill="url(#paint17_linear)"/>
<path d="M4.08729 39.8488C4.08729 39.8488 5.08475 43.8102 8.73304 48.4923L10.7659 47.3605C10.7659 47.3605 3.87046 40.5001 4.48302 34.7876C4.48302 34.7876 3.16573 36.2985 4.08729 39.8488Z" fill="url(#paint18_radial)"/>
<path d="M28.14 47.6756C26.4269 47.3285 25.2398 48.738 22.4046 50.6172C19.5695 52.4965 14.4304 53.3453 12.0723 51.7224C10.7008 50.7774 8.733 51.5675 6.85193 52.331C6.34236 51.685 5.8599 51.0176 5.40454 50.3289C6.49957 49.7257 7.62713 49.1064 8.733 48.4924C9.41604 48.1133 10.0991 47.7343 10.7659 47.3606C13.6932 45.7216 16.3386 44.216 17.8781 43.2657C17.8944 43.255 17.9161 43.2444 17.9323 43.2337C18.9406 42.9347 20.0411 42.4062 21.1524 41.6801C23.3262 40.26 29.3217 45.2411 30.3788 46.2181C31.4359 47.1897 29.853 48.0226 28.14 47.6756Z" fill="#FBA2B4"/>
<path d="M33.4093 46.912C33.1599 47.0402 32.8943 47.1896 32.6124 47.3498C29.9561 48.9034 25.988 51.9679 22.15 55.1125C21.4019 55.7264 20.6538 56.3457 19.9274 56.9544L19.8732 57.0024C18.4854 58.1663 17.1519 59.3034 15.9592 60.3338C12.441 58.241 9.35111 55.5182 6.85205 52.3256C8.73312 51.5675 10.7009 50.7773 12.0724 51.717C14.4305 53.34 19.5696 52.4964 22.4048 50.6118C25.2399 48.7272 26.4217 47.3231 28.1401 47.6701C29.8531 48.0172 31.4361 47.179 30.379 46.202C29.3219 45.225 23.3263 40.2492 21.1525 41.664C20.0358 42.39 18.9408 42.9186 17.9325 43.2176C20.4803 41.6266 21.5103 39.7153 21.9819 37.7933C22.047 37.5157 22.1066 37.2381 22.1554 36.9604C24.378 38.7329 30.6554 43.7835 33.4093 46.912Z" fill="#FBA2B4"/>
<path d="M33.4093 46.912C33.1599 47.0402 32.8943 47.1896 32.6124 47.3498C29.9561 48.9034 25.988 51.9679 22.15 55.1125C21.4019 55.7264 20.6538 56.3457 19.9274 56.9544L19.8732 57.0024C18.4854 58.1663 17.1519 59.3034 15.9592 60.3338C12.441 58.241 9.35111 55.5182 6.85205 52.3256C8.73312 51.5675 10.7009 50.7773 12.0724 51.717C14.4305 53.34 19.5696 52.4964 22.4048 50.6118C25.2399 48.7272 26.4217 47.3231 28.1401 47.6701C29.8531 48.0172 31.4361 47.179 30.379 46.202C29.3219 45.225 23.3263 40.2492 21.1525 41.664C20.0358 42.39 18.9408 42.9186 17.9325 43.2176C20.4803 41.6266 21.5103 39.7153 21.9819 37.7933C22.047 37.5157 22.1066 37.2381 22.1554 36.9604C24.378 38.7329 30.6554 43.7835 33.4093 46.912Z" fill="url(#paint19_radial)"/>
<path d="M41.3833 41.8723C44.0179 41.4719 46.3489 41.3384 47.2054 40.3347C48.0619 39.331 50.0406 39.2616 50.4363 38.5195C50.5122 38.3701 50.5555 38.2313 50.5718 38.0924C50.214 38.4822 49.7641 38.6477 49.3738 38.8506C48.8046 39.1549 47.9698 39.0214 47.7475 38.5462C47.5252 38.0711 47.1349 38.1992 46.4736 39.1602C45.8122 40.1159 44.2347 40.4095 43.221 40.4095C42.2073 40.4095 41.0255 38.8078 40.1039 37.5105C39.1824 36.2132 39.0143 36.4054 39.2095 38.8719C39.4046 41.3384 37.0357 43.4793 35.6208 44.451C34.2059 45.4173 32.9971 44.451 32.9971 44.451L33.7452 46.752C33.8102 46.72 33.8753 46.6933 33.9403 46.6612C38.7704 44.5044 38.7487 42.2727 41.3833 41.8723Z" fill="#FBA2B4"/>
<path d="M41.3833 41.8723C44.0179 41.4719 46.3489 41.3384 47.2054 40.3347C48.0619 39.331 50.0406 39.2616 50.4363 38.5195C50.5122 38.3701 50.5555 38.2313 50.5718 38.0924C50.214 38.4822 49.7641 38.6477 49.3738 38.8506C48.8046 39.1549 47.9698 39.0214 47.7475 38.5462C47.5252 38.0711 47.1349 38.1992 46.4736 39.1602C45.8122 40.1159 44.2347 40.4095 43.221 40.4095C42.2073 40.4095 41.0255 38.8078 40.1039 37.5105C39.1824 36.2132 39.0143 36.4054 39.2095 38.8719C39.4046 41.3384 37.0357 43.4793 35.6208 44.451C34.2059 45.4173 32.9971 44.451 32.9971 44.451L33.7452 46.752C33.8102 46.72 33.8753 46.6933 33.9403 46.6612C38.7704 44.5044 38.7487 42.2727 41.3833 41.8723Z" fill="url(#paint20_radial)"/>
<path d="M46.7015 21.3016C46.837 21.6433 47.3032 22.4815 47.417 22.3053C47.5254 22.1344 47.2924 21.6806 47.2924 21.6806C47.1677 21.5525 47.0159 21.4084 46.8587 21.2535C46.8424 21.2322 46.5714 20.9706 46.7015 21.3016Z" fill="#FBA2B4"/>
<path d="M46.517 22.0865C46.2731 22.4014 45.6388 22.3908 45.4545 22.3587C45.2702 22.3267 45.731 21.8302 45.7201 21.4511C45.7093 21.0721 45.0046 21.9797 44.5004 22.1559C43.9963 22.3267 43.0097 20.5542 42.7874 21.8516C42.5652 23.1489 41.3834 24.8787 39.974 25.7435C38.5699 26.6084 39.0524 27.516 38.391 29.075C37.7297 30.6339 37.9194 32.1074 38.2772 33.1271C38.1363 32.5292 38.1091 31.8778 38.3097 31.2799C38.803 29.8224 39.7896 28.1674 39.9902 27.3238C40.1854 26.4803 41.0419 25.9945 41.6057 25.183C42.164 24.3715 42.8037 23.6881 43.0043 23.2343C43.1994 22.7805 43.3133 23.0154 43.774 22.8446C44.2348 22.6737 44.3649 22.3694 44.9178 22.6524C45.4654 22.9353 45.9695 23.0848 46.826 22.914C47.6825 22.7431 47.8343 22.2413 47.4386 21.8302C47.3952 21.7875 47.3464 21.7341 47.2922 21.6807C47.2922 21.6807 47.5253 22.1345 47.4169 22.3053C47.3085 22.4762 46.8423 21.6433 46.7013 21.3017C46.5712 20.9706 46.8423 21.2376 46.8585 21.2536C46.6851 21.0828 46.5062 20.9012 46.3273 20.7197C46.3273 20.7197 46.7555 21.7768 46.517 22.0865Z" fill="#FBA2B4"/>
<path d="M46.517 22.0865C46.2731 22.4014 45.6388 22.3908 45.4545 22.3587C45.2702 22.3267 45.731 21.8302 45.7201 21.4511C45.7093 21.0721 45.0046 21.9797 44.5004 22.1559C43.9963 22.3267 43.0097 20.5542 42.7874 21.8516C42.5652 23.1489 41.3834 24.8787 39.974 25.7435C38.5699 26.6084 39.0524 27.516 38.391 29.075C37.7297 30.6339 37.9194 32.1074 38.2772 33.1271C38.1363 32.5292 38.1091 31.8778 38.3097 31.2799C38.803 29.8224 39.7896 28.1674 39.9902 27.3238C40.1854 26.4803 41.0419 25.9945 41.6057 25.183C42.164 24.3715 42.8037 23.6881 43.0043 23.2343C43.1994 22.7805 43.3133 23.0154 43.774 22.8446C44.2348 22.6737 44.3649 22.3694 44.9178 22.6524C45.4654 22.9353 45.9695 23.0848 46.826 22.914C47.6825 22.7431 47.8343 22.2413 47.4386 21.8302C47.3952 21.7875 47.3464 21.7341 47.2922 21.6807C47.2922 21.6807 47.5253 22.1345 47.4169 22.3053C47.3085 22.4762 46.8423 21.6433 46.7013 21.3017C46.5712 20.9706 46.8423 21.2376 46.8585 21.2536C46.6851 21.0828 46.5062 20.9012 46.3273 20.7197C46.3273 20.7197 46.7555 21.7768 46.517 22.0865Z" fill="url(#paint21_radial)"/>
<path d="M35.4422 24.4035C35.4422 24.4035 35.4422 23.592 35.2795 23.1382L36.0818 22.1986C36.0818 22.1986 36.9926 22.6524 37.616 22.0705C38.2394 21.4885 39.1664 20.4795 39.1664 20.4795C39.1664 20.4795 36.4667 23.9497 35.4422 24.4035Z" fill="url(#paint22_radial)"/>
<path d="M32.1515 18.2159C31.7341 19.2784 31.1432 20.8533 31.1432 20.8533C31.1432 20.8533 30.5578 21.3712 29.9561 22.0973C30.7529 21.2537 30.8342 22.2414 30.6608 23.1383C30.4385 24.2541 28.8177 25.4393 29.1212 25.3112C29.4302 25.1831 30.4385 24.489 30.8776 23.6241C31.3167 22.7593 31.539 20.4636 32.1515 19.2997C32.7641 18.1305 33.6423 18.4775 33.6423 17.5699C33.6423 17.1962 33.8862 16.7958 34.1735 16.4595C34.0217 16.4648 33.87 16.4808 33.7073 16.5075C32.7695 16.6623 32.5689 17.1589 32.1515 18.2159Z" fill="#FBA2B4"/>
<path d="M32.1515 18.2159C31.7341 19.2784 31.1432 20.8533 31.1432 20.8533C31.1432 20.8533 30.5578 21.3712 29.9561 22.0973C30.7529 21.2537 30.8342 22.2414 30.6608 23.1383C30.4385 24.2541 28.8177 25.4393 29.1212 25.3112C29.4302 25.1831 30.4385 24.489 30.8776 23.6241C31.3167 22.7593 31.539 20.4636 32.1515 19.2997C32.7641 18.1305 33.6423 18.4775 33.6423 17.5699C33.6423 17.1962 33.8862 16.7958 34.1735 16.4595C34.0217 16.4648 33.87 16.4808 33.7073 16.5075C32.7695 16.6623 32.5689 17.1589 32.1515 18.2159Z" fill="url(#paint23_radial)"/>
<path d="M29.2512 23.053C29.2621 23.037 29.2675 23.0263 29.2783 23.0103C29.2675 23.0209 29.2621 23.037 29.2512 23.053Z" fill="#FBA2B4"/>
<path d="M29.2512 23.053C29.2621 23.037 29.2675 23.0263 29.2783 23.0103C29.2675 23.0209 29.2621 23.037 29.2512 23.053Z" fill="url(#paint24_radial)"/>
<path d="M35.2036 22.2417C35.2524 22.893 35.2795 23.1386 35.2795 23.1386C35.2795 23.1386 35.247 22.7489 35.2036 22.2417Z" fill="#FBA2B4"/>
<path d="M35.1113 20.9814C35.1384 21.3872 35.171 21.8463 35.2035 22.2361C35.1818 21.9211 35.1493 21.51 35.1113 20.9814Z" fill="url(#paint25_radial)"/>
<path d="M34.179 19.5562C33.7995 23.7952 33.8049 27.2547 35.6209 25.3221C37.437 23.3841 38.8301 22.4551 39.7029 21.1364C40.5757 19.8124 41.6002 19.5615 42.3863 19.5615C43.1723 19.5615 45.422 19.8231 45.4329 19.8284C44.8853 19.5295 44.0126 19.5295 43.2428 19.3693C42.2995 19.1771 41.0473 18.8728 40.451 19.3693C40.1095 19.6576 39.8547 19.8391 39.6975 19.9352L39.1608 20.4851L37.1225 22.7381L35.2686 23.1438C35.2686 23.1438 35.2415 22.8982 35.1927 22.2469C35.1602 21.8572 35.1276 21.3927 35.1005 20.9923C35.0897 20.8321 35.0789 20.6666 35.068 20.4851C34.9487 18.4671 34.553 15.3225 34.179 19.5562Z" fill="#FBA2B4"/>
<path d="M34.179 19.5562C33.7995 23.7952 33.8049 27.2547 35.6209 25.3221C37.437 23.3841 38.8301 22.4551 39.7029 21.1364C40.5757 19.8124 41.6002 19.5615 42.3863 19.5615C43.1723 19.5615 45.422 19.8231 45.4329 19.8284C44.8853 19.5295 44.0126 19.5295 43.2428 19.3693C42.2995 19.1771 41.0473 18.8728 40.451 19.3693C40.1095 19.6576 39.8547 19.8391 39.6975 19.9352L39.1608 20.4851L37.1225 22.7381L35.2686 23.1438C35.2686 23.1438 35.2415 22.8982 35.1927 22.2469C35.1602 21.8572 35.1276 21.3927 35.1005 20.9923C35.0897 20.8321 35.0789 20.6666 35.068 20.4851C34.9487 18.4671 34.553 15.3225 34.179 19.5562Z" fill="url(#paint26_radial)"/>
<path d="M49.9377 37.1209L45.9858 37.5107C45.9858 37.5107 45.2594 37.6708 44.5709 37.4466C43.8825 37.2224 42.4297 37.2544 41.7032 37.1209C40.9768 36.9928 39.7571 35.53 39.2313 35.0442C38.9169 34.7559 38.4778 33.9977 38.2772 33.1275C37.9194 32.1078 37.7297 30.6343 38.3911 29.0754C39.0524 27.5164 38.5645 26.6088 39.974 25.7439C41.378 24.8791 42.5652 23.1493 42.7874 21.852C43.0097 20.5546 43.9963 22.3271 44.5005 22.1563C45.0046 21.9854 45.7093 21.0725 45.7202 21.4515C45.731 21.8306 45.2702 22.3271 45.4545 22.3591C45.6389 22.3912 46.2785 22.4019 46.517 22.0869C46.7556 21.7719 46.3327 20.7148 46.3327 20.7148C46.1159 20.4906 45.9099 20.2717 45.7527 20.0741C45.666 19.9727 45.563 19.8873 45.4383 19.8179C45.4274 19.8179 43.1832 19.5509 42.3917 19.5509C41.6003 19.5509 40.5811 19.8072 39.7083 21.1259C38.8356 22.4499 37.4424 23.3789 35.6264 25.3115C33.8104 27.2495 33.8049 23.7846 34.1844 19.5456C34.5639 15.3066 34.9542 18.4565 35.0897 20.4639C35.1005 20.6454 35.1114 20.8109 35.1222 20.9711C35.1005 20.5973 35.0843 20.2717 35.0897 20.0955C35.106 19.4762 35.4421 19.5616 35.4583 20.6134C35.4746 21.6651 36.266 21.5049 36.4558 21.0298C36.6455 20.5546 36.5208 19.268 36.3799 18.5632C36.2389 17.8585 36.8352 18.8943 37.0304 19.9033C37.2201 20.9123 37.296 20.9123 37.849 20.5813C38.4073 20.2503 38.2609 20.4532 38.6079 20.3517C38.9603 20.2503 39.0524 19.8926 38.8681 19.5616C38.2122 19.1025 37.2147 18.3657 36.4937 17.6396C35.5288 16.6733 34.9108 16.417 34.1898 16.4437C33.9025 16.7801 33.6586 17.1805 33.6586 17.5542C33.6586 18.4618 32.7804 18.1148 32.1678 19.284C31.5552 20.4532 31.333 22.7435 30.8939 23.6084C30.4548 24.4733 29.4465 25.1674 29.1375 25.2955C28.8285 25.4236 30.4548 24.2384 30.677 23.1226C30.8559 22.2257 30.7692 21.238 29.9723 22.0815C29.8476 22.2363 29.7175 22.3965 29.5929 22.562C29.62 22.546 29.6308 22.5353 29.6308 22.5353C29.6308 22.5353 28.5629 24.5534 28.3027 25.8561C28.037 27.1534 26.4053 27.714 25.0501 28.6696C23.6949 29.6253 23.5106 30.1858 23.207 32.5189C22.898 34.8573 22.7679 35.4179 23.7328 36.0639C24.6977 36.7152 28.4653 39.5661 30.7313 42.2035L22.1987 36.6832C22.1824 36.7793 22.1716 36.8754 22.1499 36.9715C24.3779 38.7333 30.6554 43.7838 33.4092 46.9123C33.523 46.8536 33.6369 46.8002 33.7453 46.7468L32.9972 44.4458C32.9972 44.4458 34.2061 45.4121 35.6209 44.4458C37.0358 43.4795 39.4048 41.3333 39.2096 38.8667C39.0145 36.4002 39.1825 36.208 40.1041 37.5053C41.0256 38.8027 42.2128 40.4043 43.2211 40.4043C44.2294 40.4043 45.8123 40.116 46.4737 39.155C47.135 38.1994 47.5253 38.0659 47.7476 38.5411C47.9699 39.0162 48.7993 39.1444 49.3739 38.8454C49.7642 38.6372 50.2141 38.4717 50.5719 38.0873C50.637 37.5481 50.2575 37.1476 49.9377 37.1209Z" fill="#FBA2B4"/>
<path d="M23.7165 36.0852C22.7516 35.4338 22.8817 34.8733 23.1907 32.5402C23.4997 30.2018 23.6786 29.6466 25.0338 28.6909C26.3891 27.7353 28.0208 27.1747 28.2864 25.8774C28.552 24.58 29.6145 22.5566 29.6145 22.5566C29.6145 22.5566 29.5983 22.5673 29.5766 22.5833C29.4736 22.7221 29.3706 22.8663 29.2784 23.0158C29.2676 23.0318 29.2622 23.0425 29.2513 23.0585C29.1212 23.2667 29.002 23.4803 28.9044 23.6938C28.2701 25.0979 27.3648 26.4433 26.1397 27.3509C24.9091 28.2585 23.1528 29.2996 22.6269 32.5402C22.4209 33.8002 22.4209 35.2256 22.2041 36.6831L30.7258 42.2248C28.449 39.5821 24.6869 36.7312 23.7165 36.0852Z" fill="#FBA2B4"/>
<path d="M23.7165 36.0852C22.7516 35.4338 22.8817 34.8733 23.1907 32.5402C23.4997 30.2018 23.6786 29.6466 25.0338 28.6909C26.3891 27.7353 28.0208 27.1747 28.2864 25.8774C28.552 24.58 29.6145 22.5566 29.6145 22.5566C29.6145 22.5566 29.5983 22.5673 29.5766 22.5833C29.4736 22.7221 29.3706 22.8663 29.2784 23.0158C29.2676 23.0318 29.2622 23.0425 29.2513 23.0585C29.1212 23.2667 29.002 23.4803 28.9044 23.6938C28.2701 25.0979 27.3648 26.4433 26.1397 27.3509C24.9091 28.2585 23.1528 29.2996 22.6269 32.5402C22.4209 33.8002 22.4209 35.2256 22.2041 36.6831L30.7258 42.2248C28.449 39.5821 24.6869 36.7312 23.7165 36.0852Z" fill="url(#paint27_radial)"/>
<path opacity="0.38" d="M49.8672 36.5065C52.7144 36.5065 55.0225 34.2333 55.0225 31.4293C55.0225 28.6252 52.7144 26.3521 49.8672 26.3521C47.02 26.3521 44.7119 28.6252 44.7119 31.4293C44.7119 34.2333 47.02 36.5065 49.8672 36.5065Z" fill="url(#paint28_radial)"/>
<path d="M49.6939 36.6563C52.5411 36.6563 54.8492 34.3832 54.8492 31.5792C54.8492 28.7751 52.5411 26.502 49.6939 26.502C46.8467 26.502 44.5386 28.7751 44.5386 31.5792C44.5386 34.3832 46.8467 36.6563 49.6939 36.6563Z" fill="url(#paint29_radial)"/>
<g opacity="0.44">
<path opacity="0.44" d="M48.5663 36.0531C48.4307 35.9783 48.279 35.9517 48.1272 35.9089C47.97 35.8662 47.8182 35.8128 47.6718 35.7541C47.3737 35.6367 47.0918 35.4338 46.8478 35.2363C46.5822 35.0227 46.3599 34.7718 46.1485 34.5048C45.9263 34.2272 45.6986 33.9496 45.5197 33.6453C45.4167 33.4744 45.33 33.2929 45.2649 33.1061C45.2053 32.9245 45.1836 32.727 45.1186 32.5455C45.0969 32.4868 45.0264 32.4921 45.0047 32.5455C44.8692 32.8658 45.0264 33.2822 45.1673 33.5759C45.33 33.9176 45.5631 34.2219 45.7962 34.5155C46.0238 34.8038 46.2569 35.0921 46.5497 35.327C46.8153 35.5406 47.108 35.7114 47.4279 35.8395C47.6068 35.9089 47.7802 35.9837 47.9645 36.0424C48.1488 36.1011 48.3494 36.1652 48.5446 36.1439C48.5825 36.1385 48.6096 36.0798 48.5663 36.0531Z" fill="white"/>
<path opacity="0.44" d="M52.3067 27.5212C52.285 27.4037 52.1224 27.329 52.0248 27.2756C51.9001 27.2062 51.77 27.1421 51.6291 27.1048C51.602 27.0941 51.5695 27.1048 51.5478 27.1261C51.5369 27.1368 51.5261 27.1475 51.5261 27.1688C51.5207 27.2329 51.564 27.2596 51.6128 27.297C51.6833 27.3504 51.7592 27.3931 51.8351 27.4358C51.9489 27.4998 52.1224 27.644 52.2634 27.6013C52.2959 27.5853 52.3121 27.5532 52.3067 27.5212Z" fill="white"/>
<path opacity="0.44" d="M54.2964 29.9506C54.1879 29.6783 54.0687 29.4167 53.9169 29.1711C53.7651 28.9309 53.5971 28.7013 53.4073 28.4878C53.3098 28.381 53.2122 28.2742 53.1038 28.1834C53.0008 28.0927 52.8924 27.9966 52.7568 27.9539C52.7081 27.9379 52.6701 27.9966 52.6918 28.034C52.7568 28.1514 52.8598 28.2368 52.952 28.3329C53.0496 28.4344 53.1471 28.5305 53.2339 28.6319C53.4128 28.8348 53.5754 29.059 53.7163 29.2886C53.8573 29.5181 53.9874 29.7584 54.0849 30.0093C54.1825 30.2549 54.2259 30.5325 54.3885 30.7514C54.4048 30.7728 54.4427 30.7728 54.4536 30.7407C54.5078 30.4738 54.3939 30.2015 54.2964 29.9506Z" fill="white"/>
<path opacity="0.44" d="M47.6177 27.2919C47.7261 27.2812 47.8291 27.2812 47.9376 27.2598C48.0351 27.2438 48.1436 27.2331 48.214 27.1584C48.2466 27.1264 48.2303 27.0783 48.1869 27.0623C47.9972 26.9875 47.7587 27.153 47.6069 27.2492C47.5906 27.2598 47.596 27.2919 47.6177 27.2919Z" fill="white"/>
<path opacity="0.44" d="M48.6314 26.9609C48.5717 26.9449 48.4904 26.9556 48.4524 27.009C48.4416 27.025 48.447 27.0517 48.4579 27.0677C48.5067 27.1104 48.588 27.0998 48.6422 27.0677C48.691 27.041 48.6856 26.9769 48.6314 26.9609Z" fill="white"/>
<path opacity="0.44" d="M53.7921 33.8747C53.6566 33.9975 53.5752 34.1897 53.4722 34.3392C53.3584 34.5047 53.2337 34.6542 53.0928 34.793C52.9518 34.9265 52.8 35.06 52.6537 35.1828C52.5127 35.3002 52.3501 35.4123 52.2525 35.5672C52.2417 35.5832 52.258 35.5992 52.2742 35.5939C52.4748 35.5565 52.6428 35.423 52.8055 35.3056C52.9627 35.1881 53.1199 35.06 53.2608 34.9265C53.4018 34.7877 53.5265 34.6382 53.6295 34.4727C53.7324 34.3125 53.868 34.1203 53.9005 33.9335C53.8951 33.8747 53.8354 33.832 53.7921 33.8747Z" fill="white"/>
</g>
<path d="M59.8687 22.327C59.8687 22.327 61.4732 22.3003 62.2647 21.729L63.647 35.2148C63.647 35.2148 63.311 36.1224 61.0721 36.2879L59.8687 22.327Z" fill="url(#paint30_linear)"/>
<path d="M49.6937 35.8926C52.047 35.8926 53.9546 34.0139 53.9546 31.6963C53.9546 29.3788 52.047 27.5 49.6937 27.5C47.3405 27.5 45.4329 29.3788 45.4329 31.6963C45.4329 34.0139 47.3405 35.8926 49.6937 35.8926Z" fill="url(#paint31_radial)"/>
<path d="M19.8733 57.0025C23.5921 58.6628 29.9129 60.131 36.6728 55.9187C43.4327 51.7064 40.5379 43.9224 40.5379 43.9224C40.5379 43.9224 42.5545 50.8895 36.6728 54.2476C29.0781 58.5827 22.1501 55.1125 22.1501 55.1125L19.8733 57.0025Z" fill="url(#paint32_radial)"/>
<path opacity="0.36" d="M46.7665 30.0096L52.0085 29.5398C52.1603 29.5291 52.2904 29.6359 52.3012 29.78L52.6156 33.0634C52.6319 33.2129 52.5181 33.341 52.3717 33.3571L47.0646 33.8269C46.9128 33.8429 46.7827 33.7308 46.7665 33.5813L46.5171 30.2979C46.5063 30.1538 46.6147 30.0256 46.7665 30.0096Z" fill="url(#paint33_radial)"/>
<path d="M52.5615 32.5028L52.4422 31.2535C52.1712 30.4954 51.5478 29.8974 50.7672 29.6519L48.7235 29.8334C47.8995 30.2712 47.3357 31.1254 47.3357 32.113C47.3357 32.7323 47.558 33.3036 47.9266 33.7521L52.2579 33.3677C52.4097 33.1061 52.5127 32.8124 52.5615 32.5028Z" fill="url(#paint34_radial)"/>
<path d="M47.8832 31.1411C48.2006 31.1411 48.4578 30.8877 48.4578 30.5752C48.4578 30.2626 48.2006 30.0093 47.8832 30.0093C47.5659 30.0093 47.3086 30.2626 47.3086 30.5752C47.3086 30.8877 47.5659 31.1411 47.8832 31.1411Z" fill="white"/>
<path d="M36.0818 47.2217L33.8809 47.9317C33.5177 48.0438 33.1166 47.9317 32.8672 47.6434C30.959 45.4278 22.5132 36.1276 12.7826 33.1646C1.71299 29.7905 4.08737 39.8488 4.08737 39.8488C4.08737 39.8488 2.10872 33.2927 6.72195 31.4135C11.2701 29.5556 24.0419 34.1416 35.2145 46.8479C35.3663 47.0188 35.6644 47.2644 36.0818 47.2217Z" fill="url(#paint35_linear)"/>
<defs>
<radialGradient id="paint0_radial" cx="0" cy="0" r="1" gradientUnits="userSpaceOnUse" gradientTransform="translate(38.8245 45.1946) scale(9.25992 9.11958)">
<stop stop-color="#00078F"/>
<stop offset="1" stop-color="#9927C3"/>
</radialGradient>
<linearGradient id="paint1_linear" x1="47.5724" y1="17.8654" x2="81.0987" y2="17.8654" gradientUnits="userSpaceOnUse">
<stop stop-color="#00078F"/>
<stop offset="1" stop-color="#9927C3"/>
</linearGradient>
<linearGradient id="paint2_linear" x1="44.0142" y1="15.1431" x2="77.5404" y2="15.1431" gradientUnits="userSpaceOnUse">
<stop stop-color="#00078F"/>
<stop offset="1" stop-color="#9927C3"/>
</linearGradient>
<linearGradient id="paint3_linear" x1="51.5624" y1="15.1431" x2="94.9926" y2="15.1431" gradientUnits="userSpaceOnUse">
<stop stop-color="#00078F"/>
<stop offset="1" stop-color="#9927C3"/>
</linearGradient>
<radialGradient id="paint4_radial" cx="0" cy="0" r="1" gradientUnits="userSpaceOnUse" gradientTransform="translate(45.9261 18.7853) scale(20.5783 20.2665)">
<stop stop-color="#2757E1"/>
<stop offset="1" stop-color="#00BDAA"/>
</radialGradient>
<linearGradient id="paint5_linear" x1="53.3168" y1="5.61074" x2="50.7577" y2="18.9493" gradientUnits="userSpaceOnUse">
<stop stop-color="white"/>
<stop offset="1" stop-color="white" stop-opacity="0"/>
</linearGradient>
<linearGradient id="paint6_linear" x1="56.8539" y1="6.10935" x2="54.5115" y2="18.3186" gradientUnits="userSpaceOnUse">
<stop stop-color="white"/>
<stop offset="1" stop-color="white" stop-opacity="0"/>
</linearGradient>
<radialGradient id="paint7_radial" cx="0" cy="0" r="1" gradientUnits="userSpaceOnUse" gradientTransform="translate(44.6768 23.3476) scale(25.4884 25.1025)">
<stop stop-color="#00078F"/>
<stop offset="1" stop-color="#9927C3"/>
</radialGradient>
<radialGradient id="paint8_radial" cx="0" cy="0" r="1" gradientUnits="userSpaceOnUse" gradientTransform="translate(47.2805 22.8515) scale(2.33156 2.29631)">
<stop stop-color="#EAEAEA"/>
<stop offset="1" stop-color="#00BDAA"/>
</radialGradient>
<radialGradient id="paint9_radial" cx="0" cy="0" r="1" gradientUnits="userSpaceOnUse" gradientTransform="translate(47.3549 22.7108) scale(1.85731 1.82924)">
<stop stop-color="#00078F"/>
<stop offset="1" stop-color="#9927C3"/>
</radialGradient>
<radialGradient id="paint10_radial" cx="0" cy="0" r="1" gradientUnits="userSpaceOnUse" gradientTransform="translate(47.3567 22.5778) rotate(-6.24852) scale(1.81585 1.78897)">
<stop stop-color="#EAEAEA"/>
<stop offset="1" stop-color="#00BDAA"/>
</radialGradient>
<radialGradient id="paint11_radial" cx="0" cy="0" r="1" gradientUnits="userSpaceOnUse" gradientTransform="translate(11.1179 41.3126) scale(76.7794 75.6158)">
<stop stop-color="#00078F"/>
<stop offset="1" stop-color="#9927C3"/>
</radialGradient>
<radialGradient id="paint12_radial" cx="0" cy="0" r="1" gradientUnits="userSpaceOnUse" gradientTransform="translate(11.1181 41.3125) scale(76.779 75.616)">
<stop stop-color="#00078F"/>
<stop offset="1" stop-color="#9927C3"/>
</radialGradient>
<radialGradient id="paint13_radial" cx="0" cy="0" r="1" gradientUnits="userSpaceOnUse" gradientTransform="translate(1.72126 34.1105) scale(60.9133 59.9905)">
<stop stop-color="#00078F"/>
<stop offset="1" stop-color="#9927C3"/>
</radialGradient>
<radialGradient id="paint14_radial" cx="0" cy="0" r="1" gradientUnits="userSpaceOnUse" gradientTransform="translate(42.1557 37.5542) scale(38.5009 37.9176)">
<stop stop-color="#00078F"/>
<stop offset="1" stop-color="#9927C3"/>
</radialGradient>
<radialGradient id="paint15_radial" cx="0" cy="0" r="1" gradientUnits="userSpaceOnUse" gradientTransform="translate(48.3184 37.1884) scale(24.2841 23.9163)">
<stop stop-color="#00078F"/>
<stop offset="1" stop-color="#9927C3"/>
</radialGradient>
<radialGradient id="paint16_radial" cx="0" cy="0" r="1" gradientUnits="userSpaceOnUse" gradientTransform="translate(38.8731 22.9758) scale(5.99571 5.90491)">
<stop stop-color="#F15BB2"/>
<stop offset="0.5097" stop-color="#F67FB3"/>
<stop offset="1" stop-color="#FBA2B4"/>
</radialGradient>
<linearGradient id="paint17_linear" x1="34.5648" y1="46.211" x2="36.6755" y2="46.211" gradientUnits="userSpaceOnUse">
<stop stop-color="#000784"/>
<stop offset="1" stop-color="#9927C3"/>
</linearGradient>
<radialGradient id="paint18_radial" cx="0" cy="0" r="1" gradientUnits="userSpaceOnUse" gradientTransform="translate(8.09757 48.1707) scale(17.6478 17.3804)">
<stop stop-color="#000784"/>
<stop offset="1" stop-color="#9927C3"/>
</radialGradient>
<radialGradient id="paint19_radial" cx="0" cy="0" r="1" gradientUnits="userSpaceOnUse" gradientTransform="translate(6.21978 67.4048) scale(35.1404 34.6081)">
<stop stop-color="#F15BB2"/>
<stop offset="0.5097" stop-color="#F67FB3"/>
<stop offset="1" stop-color="#FBA2B4"/>
</radialGradient>
<radialGradient id="paint20_radial" cx="0" cy="0" r="1" gradientUnits="userSpaceOnUse" gradientTransform="translate(56.3617 41.7216) scale(19.2773 18.9852)">
<stop stop-color="#F15BB2"/>
<stop offset="0.5097" stop-color="#F67FB3"/>
<stop offset="1" stop-color="#FBA2B4"/>
</radialGradient>
<radialGradient id="paint21_radial" cx="0" cy="0" r="1" gradientUnits="userSpaceOnUse" gradientTransform="translate(46.3416 24.1415) scale(11.8907 11.7106)">
<stop stop-color="#F15BB2"/>
<stop offset="0.5097" stop-color="#F67FB3"/>
<stop offset="1" stop-color="#FBA2B4"/>
</radialGradient>
<radialGradient id="paint22_radial" cx="0" cy="0" r="1" gradientUnits="userSpaceOnUse" gradientTransform="translate(35.3619 36.6543) scale(51.7146 50.9311)">
<stop stop-color="#AE42B2"/>
<stop offset="1" stop-color="#FBA2B4"/>
</radialGradient>
<radialGradient id="paint23_radial" cx="0" cy="0" r="1" gradientUnits="userSpaceOnUse" gradientTransform="translate(26.2572 19.3401) scale(8.8139 8.6804)">
<stop stop-color="#F15BB2"/>
<stop offset="0.5097" stop-color="#F67FB3"/>
<stop offset="1" stop-color="#FBA2B4"/>
</radialGradient>
<radialGradient id="paint24_radial" cx="0" cy="0" r="1" gradientUnits="userSpaceOnUse" gradientTransform="translate(28.9913 19.5011) scale(8.81291 8.68367)">
<stop stop-color="#F15BB2"/>
<stop offset="0.5097" stop-color="#F67FB3"/>
<stop offset="1" stop-color="#FBA2B4"/>
</radialGradient>
<radialGradient id="paint25_radial" cx="0" cy="0" r="1" gradientUnits="userSpaceOnUse" gradientTransform="translate(36.5508 25.2975) scale(11.0386 10.8709)">
<stop stop-color="#FBA2B4"/>
<stop offset="1" stop-color="#FAD7A8"/>
</radialGradient>
<radialGradient id="paint26_radial" cx="0" cy="0" r="1" gradientUnits="userSpaceOnUse" gradientTransform="translate(33.3824 18.9962) scale(16.0571 15.8137)">
<stop stop-color="#FBA2B4"/>
<stop offset="1" stop-color="#FAD7A8"/>
</radialGradient>
<radialGradient id="paint27_radial" cx="0" cy="0" r="1" gradientUnits="userSpaceOnUse" gradientTransform="translate(20.6489 38.8348) scale(19.5227 19.227)">
<stop stop-color="#FBA2B4"/>
<stop offset="1" stop-color="#FAD7A8"/>
</radialGradient>
<radialGradient id="paint28_radial" cx="0" cy="0" r="1" gradientUnits="userSpaceOnUse" gradientTransform="translate(58.2155 24.9394) scale(23.7201 23.3607)">
<stop stop-color="#EAEAEA"/>
<stop offset="1" stop-color="#00BDAA"/>
</radialGradient>
<radialGradient id="paint29_radial" cx="0" cy="0" r="1" gradientUnits="userSpaceOnUse" gradientTransform="translate(58.0399 25.0913) scale(23.7201 23.3606)">
<stop stop-color="#00078F"/>
<stop offset="1" stop-color="#9927C3"/>
</radialGradient>
<linearGradient id="paint30_linear" x1="59.869" y1="29.012" x2="63.6465" y2="29.012" gradientUnits="userSpaceOnUse">
<stop stop-color="#00078F"/>
<stop offset="1" stop-color="#9927C3"/>
</linearGradient>
<radialGradient id="paint31_radial" cx="0" cy="0" r="1" gradientUnits="userSpaceOnUse" gradientTransform="translate(42.3144 35.6546) scale(19.5996 19.3026)">
<stop stop-color="#00078F"/>
<stop offset="1" stop-color="#9927C3"/>
</radialGradient>
<radialGradient id="paint32_radial" cx="0" cy="0" r="1" gradientUnits="userSpaceOnUse" gradientTransform="translate(17.2369 49.5922) scale(46.0253 45.3279)">
<stop stop-color="#00078F"/>
<stop offset="1" stop-color="#9927C3"/>
</radialGradient>
<radialGradient id="paint33_radial" cx="0" cy="0" r="1" gradientUnits="userSpaceOnUse" gradientTransform="translate(45.7609 31.1892) scale(13.2181 13.0179)">
<stop stop-color="#2757E1"/>
<stop offset="1" stop-color="#00BDAA"/>
</radialGradient>
<radialGradient id="paint34_radial" cx="0" cy="0" r="1" gradientUnits="userSpaceOnUse" gradientTransform="translate(46.6918 31.2279) scale(11.5006 11.3264)">
<stop stop-color="#00078F"/>
<stop offset="1" stop-color="#9927C3"/>
</radialGradient>
<linearGradient id="paint35_linear" x1="3.66625" y1="39.4941" x2="36.0839" y2="39.4941" gradientUnits="userSpaceOnUse">
<stop stop-color="#000784"/>
<stop offset="1" stop-color="#9927C3"/>
</linearGradient>
</defs>
</svg>
