<svg fill="none" height="65" viewBox="0 0 66 65" width="66" xmlns="http://www.w3.org/2000/svg" xmlns:xlink="http://www.w3.org/1999/xlink"><linearGradient id="a"><stop offset="0" stop-color="#00078f"/><stop offset="1" stop-color="#9927c3"/></linearGradient><radialGradient id="b" cx="0" cy="0" gradientTransform="matrix(9.25992 0 0 9.11958 38.8245 45.1946)" gradientUnits="userSpaceOnUse" r="1" xlink:href="#a"/><linearGradient id="c" gradientUnits="userSpaceOnUse" x1="47.5724" x2="81.0987" xlink:href="#a" y1="17.8654" y2="17.8654"/><linearGradient id="d" gradientUnits="userSpaceOnUse" x1="44.0142" x2="77.5404" xlink:href="#a" y1="15.1431" y2="15.1431"/><linearGradient id="e" gradientUnits="userSpaceOnUse" x1="51.5624" x2="94.9926" xlink:href="#a" y1="15.1431" y2="15.1431"/><linearGradient id="f"><stop offset="0" stop-color="#2757e1"/><stop offset="1" stop-color="#00bdaa"/></linearGradient><radialGradient id="g" cx="0" cy="0" gradientTransform="matrix(20.5783 0 0 20.2665 45.9261 18.7853)" gradientUnits="userSpaceOnUse" r="1" xlink:href="#f"/><linearGradient id="h"><stop offset="0" stop-color="#fff"/><stop offset="1" stop-color="#fff" stop-opacity="0"/></linearGradient><linearGradient id="i" gradientUnits="userSpaceOnUse" x1="53.3168" x2="50.7577" xlink:href="#h" y1="5.61074" y2="18.9493"/><linearGradient id="j" gradientUnits="userSpaceOnUse" x1="56.8539" x2="54.5115" xlink:href="#h" y1="6.10935" y2="18.3186"/><radialGradient id="k" cx="0" cy="0" gradientTransform="matrix(25.4884 0 0 25.1025 44.6768 23.3476)" gradientUnits="userSpaceOnUse" r="1" xlink:href="#a"/><linearGradient id="l"><stop offset="0" stop-color="#eaeaea"/><stop offset="1" stop-color="#00bdaa"/></linearGradient><radialGradient id="m" cx="0" cy="0" gradientTransform="matrix(2.33156 0 0 2.29631 47.2805 22.8515)" gradientUnits="userSpaceOnUse" r="1" xlink:href="#l"/><radialGradient id="n" cx="0" cy="0" gradientTransform="matrix(1.85731 0 0 1.82924 47.3549 22.7108)" gradientUnits="userSpaceOnUse" r="1" xlink:href="#a"/><radialGradient id="o" cx="0" cy="0" gradientTransform="matrix(1.80506231 -.19763929 .19471364 1.778342 47.3567 22.5778)" gradientUnits="userSpaceOnUse" r="1" xlink:href="#l"/><radialGradient id="p" cx="0" cy="0" gradientTransform="matrix(76.7794 0 0 75.6158 11.1179 41.3126)" gradientUnits="userSpaceOnUse" r="1" xlink:href="#a"/><radialGradient id="q" cx="0" cy="0" gradientTransform="matrix(76.779 0 0 75.616 11.1181 41.3125)" gradientUnits="userSpaceOnUse" r="1" xlink:href="#a"/><radialGradient id="r" cx="0" cy="0" gradientTransform="matrix(60.9133 0 0 59.9905 1.72126 34.1105)" gradientUnits="userSpaceOnUse" r="1" xlink:href="#a"/><radialGradient id="s" cx="0" cy="0" gradientTransform="matrix(38.5009 0 0 37.9176 42.1557 37.5542)" gradientUnits="userSpaceOnUse" r="1" xlink:href="#a"/><radialGradient id="t" cx="0" cy="0" gradientTransform="matrix(24.2841 0 0 23.9163 48.3184 37.1884)" gradientUnits="userSpaceOnUse" r="1" xlink:href="#a"/><linearGradient id="u"><stop offset="0" stop-color="#f15bb2"/><stop offset=".5097" stop-color="#f67fb3"/><stop offset="1" stop-color="#fba2b4"/></linearGradient><radialGradient id="v" cx="0" cy="0" gradientTransform="matrix(5.99571 0 0 5.90491 38.8731 22.9758)" gradientUnits="userSpaceOnUse" r="1" xlink:href="#u"/><linearGradient id="w"><stop offset="0" stop-color="#000784"/><stop offset="1" stop-color="#9927c3"/></linearGradient><linearGradient id="x" gradientUnits="userSpaceOnUse" x1="34.5648" x2="36.6755" xlink:href="#w" y1="46.211" y2="46.211"/><radialGradient id="y" cx="0" cy="0" gradientTransform="matrix(17.6478 0 0 17.3804 8.09757 48.1707)" gradientUnits="userSpaceOnUse" r="1" xlink:href="#w"/><radialGradient id="z" cx="0" cy="0" gradientTransform="matrix(35.1404 0 0 34.6081 6.21978 67.4048)" gradientUnits="userSpaceOnUse" r="1" xlink:href="#u"/><radialGradient id="A" cx="0" cy="0" gradientTransform="matrix(19.2773 0 0 18.9852 56.3617 41.7216)" gradientUnits="userSpaceOnUse" r="1" xlink:href="#u"/><radialGradient id="B" cx="0" cy="0" gradientTransform="matrix(11.8907 0 0 11.7106 46.3416 24.1415)" gradientUnits="userSpaceOnUse" r="1" xlink:href="#u"/><radialGradient id="C" cx="0" cy="0" gradientTransform="matrix(51.7146 0 0 50.9311 35.3619 36.6543)" gradientUnits="userSpaceOnUse" r="1"><stop offset="0" stop-color="#ae42b2"/><stop offset="1" stop-color="#fba2b4"/></radialGradient><radialGradient id="D" cx="0" cy="0" gradientTransform="matrix(8.8139 0 0 8.6804 26.2572 19.3401)" gradientUnits="userSpaceOnUse" r="1" xlink:href="#u"/><radialGradient id="E" cx="0" cy="0" gradientTransform="matrix(8.81291 0 0 8.68367 28.9913 19.5011)" gradientUnits="userSpaceOnUse" r="1" xlink:href="#u"/><linearGradient id="F"><stop offset="0" stop-color="#fba2b4"/><stop offset="1" stop-color="#fad7a8"/></linearGradient><radialGradient id="G" cx="0" cy="0" gradientTransform="matrix(11.0386 0 0 10.8709 36.5508 25.2975)" gradientUnits="userSpaceOnUse" r="1" xlink:href="#F"/><radialGradient id="H" cx="0" cy="0" gradientTransform="matrix(16.0571 0 0 15.8137 33.3824 18.9962)" gradientUnits="userSpaceOnUse" r="1" xlink:href="#F"/><radialGradient id="I" cx="0" cy="0" gradientTransform="matrix(19.5227 0 0 19.227 20.6489 38.8348)" gradientUnits="userSpaceOnUse" r="1" xlink:href="#F"/><radialGradient id="J" cx="0" cy="0" gradientTransform="matrix(23.7201 0 0 23.3607 58.2155 24.9394)" gradientUnits="userSpaceOnUse" r="1" xlink:href="#l"/><radialGradient id="K" cx="0" cy="0" gradientTransform="matrix(23.7201 0 0 23.3606 58.0399 25.0913)" gradientUnits="userSpaceOnUse" r="1" xlink:href="#a"/><linearGradient id="L" gradientUnits="userSpaceOnUse" x1="59.869" x2="63.6465" xlink:href="#a" y1="29.012" y2="29.012"/><radialGradient id="M" cx="0" cy="0" gradientTransform="matrix(19.5996 0 0 19.3026 42.3144 35.6546)" gradientUnits="userSpaceOnUse" r="1" xlink:href="#a"/><radialGradient id="N" cx="0" cy="0" gradientTransform="matrix(46.0253 0 0 45.3279 17.2369 49.5922)" gradientUnits="userSpaceOnUse" r="1" xlink:href="#a"/><radialGradient id="O" cx="0" cy="0" gradientTransform="matrix(13.2181 0 0 13.0179 45.7609 31.1892)" gradientUnits="userSpaceOnUse" r="1" xlink:href="#f"/><radialGradient id="P" cx="0" cy="0" gradientTransform="matrix(11.5006 0 0 11.3264 46.6918 31.2279)" gradientUnits="userSpaceOnUse" r="1" xlink:href="#a"/><linearGradient id="Q" gradientUnits="userSpaceOnUse" x1="3.66625" x2="36.0839" xlink:href="#w" y1="39.4941" y2="39.4941"/><path d="m66 32.4973c0 17.9491-14.7721 32.4974-32.9973 32.4974-6.2341 0-12.067-1.7031-17.038-4.6608-3.5182-2.0928-6.60815-4.8156-9.10721-8.0082-.50956-.646-.99203-1.3134-1.44739-2.0021-3.42061-5.1146-5.4101-11.2435-5.4101-17.8263 0-17.949 14.7721-32.4973 32.9973-32.4973 9.5137 0 18.0897 3.96674 24.1123 10.3146.3361.3577.6668.7207.9921 1.0891.2493.2883.4987.5819.7372.8809 1.2577 1.5589 2.369 3.23 3.3231 4.9971 2.4502 4.5434 3.838 9.722 3.838 15.2156z" fill="#d2d4f8"/><path d="m40.039 42.3315s.9432 2.5467.9866 4.1643c0 0 .1355 2.1088-.5367 3.2887 0 0 .6397-3.3314-1.4203-6.7215 0 0 .6722-.6994.9704-.7315z" fill="url(#b)"/><path d="m50.198 11.019-6.6082.6781c-.6234.064-1.0842.6139-1.0245 1.2279l1.0787 11.7828 19.1197-1.276-.309-3.1286c-5.8166-.1281-10.7009-4.0094-12.2567-9.2842z" fill="url(#c)"/><path d="m60.281 9.98887-10.083 1.03573c1.5558 5.2747 6.4401 9.1507 12.2622 9.2842l-.9162-9.3002c-.0596-.63-.6234-1.08913-1.263-1.01973z" fill="url(#d)"/><path d="m60.281 9.98887-10.083 1.03573c1.5558 5.2747 6.4401 9.1507 12.2622 9.2842l-.9162-9.3002c-.0596-.63-.6234-1.08913-1.263-1.01973z" fill="url(#e)"/><path d="m59.7335 20.3673-.9216-8.2965c-.0434-.4111-.4174-.71-.8348-.6673l-13.3844 1.34c-.4174.0427-.721.4058-.683.8169l.7372 8.0242c.038.4111.4012.7154.8186.6834l13.5687-1.0731c.4336-.0321.748-.4058.6993-.8276z" fill="url(#g)"/><path d="m49.6939 12.2367 6.6353-.6674-5.2529 10.2559-5.2421.4164z" fill="url(#i)" opacity=".44"/><path d="m56.9199 11.5106-5.3396 10.2772.9812-.0801 5.421-10.3039z" fill="url(#j)" opacity=".43"/><path d="m47.9646 22.3909 13.4493-1.0037s1.1547 0 .8457.347c-.309.3471-4.1742 1.8046-4.1742 1.8046l-15.9863.7367.9758-1.5803z" fill="url(#k)"/><path d="m48.6205 22.5244s.1734.0267.2548.1068c.0813.0801-.3036.2509-.8728.3417-.5692.0961-.8403-.0107-.8836-.0267-.0434-.016-.1681-.1335.0759-.2136z" fill="url(#m)"/><path d="m48.5988 22.3906.0325.2029c.0054.032-.0108.0694-.0434.0801-.1409.0641-.5637.2242-1.3118.1815-.038 0-.0705-.032-.0705-.0641l-.0325-.2455z" fill="url(#n)"/><path d="m48.5989 22.3908c.0108.0747-.3036.1761-.6993.2189-.3957.0427-.721.016-.7318-.0588-.0109-.0747.3035-.1762.6993-.2189.3957-.048.721-.0213.7318.0588z" fill="url(#o)"/><path d="m58.004 36.5226 3.0683-.2296-1.2034-13.961-8.1694.6247c3.6645 3.4542 6.0335 8.2378 6.3045 13.5659z" fill="url(#p)"/><path d="m35.621 38.2042 22.383-1.6817c-.271-5.3282-2.64-10.1117-6.3045-13.566l-16.6206 1.276z" fill="url(#q)"/><path d="m35.621 38.2042 22.383-1.6817c-.271-5.3282-2.64-10.1117-6.3045-13.566l-16.6206 1.276z" fill="url(#r)"/><g fill="#fff"><path d="m37.5076 26.8543c1.2902.1015 2.5858.0267 3.8705-.0373 1.3227-.0695 2.6455-.1655 3.9627-.2723 1.3661-.1121 2.7268-.2349 4.0929-.3524 1.4365-.1228 2.8785-.2349 4.3204-.331 1.5288-.1014 3.052-.2082 4.5862-.2723.1951-.0106.3903-.016.5854-.032.2657-.016.2711-.4111 0-.4111-.7806-.0107-1.5666.0267-2.3472.0534-.759.0267-1.5179.0587-2.2714.0961-1.4528.0694-2.9002.1869-4.3476.2936-1.3715.1015-2.743.2136-4.1145.315-1.3281.1015-2.6508.2029-3.979.2937-.6505.0427-1.301.0854-1.9461.1174s-1.2902.0641-1.9299.1335c-.1572.016-.3144.0267-.4716.048-.2439.0267-.2493.3364-.0108.3577z"/><path d="m56.2205 24.3607c.3903.0107.8186.1121 1.1981-.0213.1301-.0428.2222-.1495.2222-.2883 0-.1228-.0921-.2616-.2222-.2883-.4283-.0855-.8511.0747-1.2631.1441-.1139.0214-.1843.1495-.1681.2563.0163.1121.1139.1922.2331.1975z"/><path d="m58.5027 24.3182c.0759.0427.1355.0587.2168.0694.0325.0053.0651.0106.103.0053.0813-.0107.1464-.0214.2114-.0747.0542-.0428.1139-.1068.1247-.1762v-.0054c-.0488.0641-.0976.1282-.1518.1922.0163-.0106.0271-.0213.0434-.0267.1897-.1228.1897-.379 0-.4965-.0163-.0106-.0271-.0213-.0434-.0267.0488.0641.0976.1282.1518.1922v-.0053c-.0108-.0267-.0217-.0534-.0325-.0801-.0217-.0374-.0488-.0694-.0868-.0961-.065-.048-.1246-.064-.2114-.0747-.0325-.0054-.0704.0053-.103.0053-.0379.0054-.0704.0107-.1084.0214-.0433.0106-.0759.032-.1084.048-.2114.1121-.2114.4218-.0054.5286z"/><path d="m40.4294 25.3008c.9215-.0161 1.8377-.0374 2.7538-.0801.4554-.0214.9107-.0481 1.3661-.0801.2331-.016.4608-.0267.6939-.0427s.4933-.016.7155-.0961c.103-.0374.1789-.1228.1789-.2349 0-.1015-.0759-.2082-.1789-.2349-.2331-.0481-.4824-.0267-.7155-.0107s-.4608.032-.6939.0427c-.4554.0267-.9107.0587-1.3661.0961-.9215.0747-1.8377.1762-2.7538.2776-.0976.0107-.1789.0748-.1789.1762s.0813.1869.1789.1869z"/></g><path d="m51.5804 36.7203c3.5957 0 6.5105-2.8707 6.5105-6.4119s-2.9148-6.4119-6.5105-6.4119-6.5106 2.8707-6.5106 6.4119 2.9149 6.4119 6.5106 6.4119z" fill="url(#s)"/><path d="m50.4689 36.2663c2.9131 0 5.2746-2.3258 5.2746-5.1947s-2.3615-5.1946-5.2746-5.1946-5.2746 2.3257-5.2746 5.1946 2.3615 5.1947 5.2746 5.1947z" fill="#fff"/><path d="m50.4474 36.3947c2.9131 0 5.2746-2.3257 5.2746-5.1946 0-2.869-2.3615-5.1947-5.2746-5.1947-2.913 0-5.2745 2.3257-5.2745 5.1947 0 2.8689 2.3615 5.1946 5.2745 5.1946z" fill="url(#t)"/><path d="m38.5972 20.3675c-.3524.1014-.206-.1015-.759.2295-.5583.331-.6288.331-.8185-.678s-.7915-2.0501-.6505-1.3401c.1409.7048.2656 1.9914.0759 2.4666-.1898.4751-.9812.6353-.9975-.4164-.0162-1.0518-.3523-1.1372-.3686-.5179s.2006 3.0324.2006 3.0324l1.8539-.4057 2.0383-2.253.5367-.5499c-.1139.0748-.1681.1014-.1681.1014s-.2765-.1761-.6776-.4591c.1735.331.0813.6887-.2656.7902z" fill="#fba2b4"/><path d="m38.5972 20.3675c-.3524.1014-.206-.1015-.759.2295-.5583.331-.6288.331-.8185-.678s-.7915-2.0501-.6505-1.3401c.1409.7048.2656 1.9914.0759 2.4666-.1898.4751-.9812.6353-.9975-.4164-.0162-1.0518-.3523-1.1372-.3686-.5179s.2006 3.0324.2006 3.0324l1.8539-.4057 2.0383-2.253.5367-.5499c-.1139.0748-.1681.1014-.1681.1014s-.2765-.1761-.6776-.4591c.1735.331.0813.6887-.2656.7902z" fill="url(#v)"/><path d="m36.0817 47.2219s.4174-.032.5367-.8222c.1192-.7901 0-1.2386 0-1.2386s-1.3661.9076-1.9027 1.1265c-.5367.2189.4824.8596.4824.8596s.5692.1815.8836.0747z" fill="url(#x)"/><path d="m4.08729 39.8488s.99746 3.9614 4.64575 8.6435l2.03286-1.1318s-6.89544-6.8604-6.28288-12.5729c0 0-1.31729 1.5109-.39573 5.0612z" fill="url(#y)"/><path d="m28.14 47.6756c-1.7131-.3471-2.9002 1.0624-5.7354 2.9416-2.8351 1.8793-7.9742 2.7281-10.3323 1.1052-1.3715-.945-3.3393-.1549-5.22037.6086-.50957-.646-.99203-1.3134-1.44739-2.0021 1.09503-.6032 2.22259-1.2225 3.32846-1.8365.68304-.3791 1.3661-.7581 2.0329-1.1318 2.9273-1.639 5.5727-3.1446 7.1122-4.0949.0163-.0107.038-.0213.0542-.032 1.0083-.299 2.1088-.8275 3.2201-1.5536 2.1738-1.4201 8.1693 3.561 9.2264 4.538 1.0571.9716-.5258 1.8045-2.2388 1.4575z" fill="#fba2b4"/><path d="m33.4093 46.912c-.2494.1282-.515.2776-.7969.4378-2.6563 1.5536-6.6244 4.6181-10.4624 7.7627-.7481.6139-1.4962 1.2332-2.2226 1.8419l-.0542.048c-1.3878 1.1639-2.7213 2.301-3.914 3.3314-3.5182-2.0928-6.60809-4.8156-9.10715-8.0082 1.88107-.7581 3.84885-1.5483 5.22035-.6086 2.3581 1.623 7.4972.7794 10.3324-1.1052 2.8351-1.8846 4.0169-3.2887 5.7353-2.9417 1.713.3471 3.296-.4911 2.2389-1.4681s-7.0527-5.9528-9.2265-4.538c-1.1167.726-2.2117 1.2546-3.22 1.5536 2.5478-1.591 3.5778-3.5023 4.0494-5.4243.0651-.2776.1247-.5552.1735-.8329 2.2226 1.7725 8.5 6.8231 11.2539 9.9516z" fill="#fba2b4"/><path d="m33.4093 46.912c-.2494.1282-.515.2776-.7969.4378-2.6563 1.5536-6.6244 4.6181-10.4624 7.7627-.7481.6139-1.4962 1.2332-2.2226 1.8419l-.0542.048c-1.3878 1.1639-2.7213 2.301-3.914 3.3314-3.5182-2.0928-6.60809-4.8156-9.10715-8.0082 1.88107-.7581 3.84885-1.5483 5.22035-.6086 2.3581 1.623 7.4972.7794 10.3324-1.1052 2.8351-1.8846 4.0169-3.2887 5.7353-2.9417 1.713.3471 3.296-.4911 2.2389-1.4681s-7.0527-5.9528-9.2265-4.538c-1.1167.726-2.2117 1.2546-3.22 1.5536 2.5478-1.591 3.5778-3.5023 4.0494-5.4243.0651-.2776.1247-.5552.1735-.8329 2.2226 1.7725 8.5 6.8231 11.2539 9.9516z" fill="url(#z)"/><path d="m41.3833 41.8723c2.6346-.4004 4.9656-.5339 5.8221-1.5376s2.8352-1.0731 3.2309-1.8152c.0759-.1494.1192-.2882.1355-.4271-.3578.3898-.8077.5553-1.198.7582-.5692.3043-1.404.1708-1.6263-.3044-.2223-.4751-.6126-.347-1.2739.614-.6614.9557-2.2389 1.2493-3.2526 1.2493s-2.1955-1.6017-3.1171-2.899c-.9215-1.2973-1.0896-1.1051-.8944 1.3614.1951 2.4665-2.1738 4.6074-3.5887 5.5791-1.4149.9663-2.6237 0-2.6237 0l.7481 2.301c.065-.032.1301-.0587.1951-.0908 4.8301-2.1568 4.8084-4.3885 7.443-4.7889z" fill="#fba2b4"/><path d="m41.3833 41.8723c2.6346-.4004 4.9656-.5339 5.8221-1.5376s2.8352-1.0731 3.2309-1.8152c.0759-.1494.1192-.2882.1355-.4271-.3578.3898-.8077.5553-1.198.7582-.5692.3043-1.404.1708-1.6263-.3044-.2223-.4751-.6126-.347-1.2739.614-.6614.9557-2.2389 1.2493-3.2526 1.2493s-2.1955-1.6017-3.1171-2.899c-.9215-1.2973-1.0896-1.1051-.8944 1.3614.1951 2.4665-2.1738 4.6074-3.5887 5.5791-1.4149.9663-2.6237 0-2.6237 0l.7481 2.301c.065-.032.1301-.0587.1951-.0908 4.8301-2.1568 4.8084-4.3885 7.443-4.7889z" fill="url(#A)"/><path d="m46.7015 21.3016c.1355.3417.6017 1.1799.7155 1.0037.1084-.1709-.1246-.6247-.1246-.6247-.1247-.1281-.2765-.2722-.4337-.4271-.0163-.0213-.2873-.2829-.1572.0481z" fill="#fba2b4"/><path d="m46.517 22.0865c-.2439.3149-.8782.3043-1.0625.2722-.1843-.032.2765-.5285.2656-.9076-.0108-.379-.7155.5286-1.2197.7048-.5041.1708-1.4907-1.6017-1.713-.3043-.2222 1.2973-1.404 3.0271-2.8134 3.8919-1.4041.8649-.9216 1.7725-1.583 3.3315-.6613 1.5589-.4716 3.0324-.1138 4.0521-.1409-.5979-.1681-1.2493.0325-1.8472.4933-1.4575 1.4799-3.1125 1.6805-3.9561.1952-.8435 1.0517-1.3293 1.6155-2.1408.5583-.8115 1.198-1.4949 1.3986-1.9487.1951-.4538.309-.2189.7697-.3897.4608-.1709.5909-.4752 1.1438-.1922.5476.2829 1.0517.4324 1.9082.2616.8565-.1709 1.0083-.6727.6126-1.0838-.0434-.0427-.0922-.0961-.1464-.1495 0 0 .2331.4538.1247.6246-.1084.1709-.5746-.662-.7156-1.0036-.1301-.3311.141-.0641.1572-.0481-.1734-.1708-.3523-.3524-.5312-.5339 0 0 .4282 1.0571.1897 1.3668z" fill="#fba2b4"/><path d="m46.517 22.0865c-.2439.3149-.8782.3043-1.0625.2722-.1843-.032.2765-.5285.2656-.9076-.0108-.379-.7155.5286-1.2197.7048-.5041.1708-1.4907-1.6017-1.713-.3043-.2222 1.2973-1.404 3.0271-2.8134 3.8919-1.4041.8649-.9216 1.7725-1.583 3.3315-.6613 1.5589-.4716 3.0324-.1138 4.0521-.1409-.5979-.1681-1.2493.0325-1.8472.4933-1.4575 1.4799-3.1125 1.6805-3.9561.1952-.8435 1.0517-1.3293 1.6155-2.1408.5583-.8115 1.198-1.4949 1.3986-1.9487.1951-.4538.309-.2189.7697-.3897.4608-.1709.5909-.4752 1.1438-.1922.5476.2829 1.0517.4324 1.9082.2616.8565-.1709 1.0083-.6727.6126-1.0838-.0434-.0427-.0922-.0961-.1464-.1495 0 0 .2331.4538.1247.6246-.1084.1709-.5746-.662-.7156-1.0036-.1301-.3311.141-.0641.1572-.0481-.1734-.1708-.3523-.3524-.5312-.5339 0 0 .4282 1.0571.1897 1.3668z" fill="url(#B)"/><path d="m35.4422 24.4035s0-.8115-.1627-1.2653l.8023-.9396s.9108.4538 1.5342-.1281c.6234-.582 1.5504-1.591 1.5504-1.591s-2.6997 3.4702-3.7242 3.924z" fill="url(#C)"/><path d="m32.1515 18.2159c-.4174 1.0625-1.0083 2.6374-1.0083 2.6374s-.5854.5179-1.1871 1.244c.7968-.8436.8781.1441.7047 1.041-.2223 1.1158-1.8431 2.301-1.5396 2.1729.309-.1281 1.3173-.8222 1.7564-1.6871.4391-.8648.6614-3.1605 1.2739-4.3244.6126-1.1692 1.4908-.8222 1.4908-1.7298 0-.3737.2439-.7741.5312-1.1104-.1518.0053-.3035.0213-.4662.048-.9378.1548-1.1384.6514-1.5558 1.7084z" fill="#fba2b4"/><path d="m32.1515 18.2159c-.4174 1.0625-1.0083 2.6374-1.0083 2.6374s-.5854.5179-1.1871 1.244c.7968-.8436.8781.1441.7047 1.041-.2223 1.1158-1.8431 2.301-1.5396 2.1729.309-.1281 1.3173-.8222 1.7564-1.6871.4391-.8648.6614-3.1605 1.2739-4.3244.6126-1.1692 1.4908-.8222 1.4908-1.7298 0-.3737.2439-.7741.5312-1.1104-.1518.0053-.3035.0213-.4662.048-.9378.1548-1.1384.6514-1.5558 1.7084z" fill="url(#D)"/><path d="m29.2512 23.053c.0109-.016.0163-.0267.0271-.0427-.0108.0106-.0162.0267-.0271.0427z" fill="#fba2b4"/><path d="m29.2512 23.053c.0109-.016.0163-.0267.0271-.0427-.0108.0106-.0162.0267-.0271.0427z" fill="url(#E)"/><path d="m35.2036 22.2417c.0488.6513.0759.8969.0759.8969s-.0325-.3897-.0759-.8969z" fill="#fba2b4"/><path d="m35.1113 20.9814c.0271.4058.0597.8649.0922 1.2547-.0217-.315-.0542-.7261-.0922-1.2547z" fill="url(#G)"/><path d="m34.179 19.5562c-.3795 4.239-.3741 7.6985 1.4419 5.7659 1.8161-1.938 3.2092-2.867 4.082-4.1857.8728-1.324 1.8973-1.5749 2.6834-1.5749.786 0 3.0357.2616 3.0466.2669-.5476-.2989-1.4203-.2989-2.1901-.4591-.9433-.1922-2.1955-.4965-2.7918 0-.3415.2883-.5963.4698-.7535.5659l-.5367.5499-2.0383 2.253-1.8539.4057s-.0271-.2456-.0759-.8969c-.0325-.3897-.0651-.8542-.0922-1.2546-.0108-.1602-.0216-.3257-.0325-.5072-.1193-2.018-.515-5.1626-.889-.9289z" fill="#fba2b4"/><path d="m34.179 19.5562c-.3795 4.239-.3741 7.6985 1.4419 5.7659 1.8161-1.938 3.2092-2.867 4.082-4.1857.8728-1.324 1.8973-1.5749 2.6834-1.5749.786 0 3.0357.2616 3.0466.2669-.5476-.2989-1.4203-.2989-2.1901-.4591-.9433-.1922-2.1955-.4965-2.7918 0-.3415.2883-.5963.4698-.7535.5659l-.5367.5499-2.0383 2.253-1.8539.4057s-.0271-.2456-.0759-.8969c-.0325-.3897-.0651-.8542-.0922-1.2546-.0108-.1602-.0216-.3257-.0325-.5072-.1193-2.018-.515-5.1626-.889-.9289z" fill="url(#H)"/><path d="m49.9377 37.1209-3.9519.3898s-.7264.1601-1.4149-.0641c-.6884-.2242-2.1412-.1922-2.8677-.3257-.7264-.1281-1.9461-1.5909-2.4719-2.0767-.3144-.2883-.7535-1.0465-.9541-1.9167-.3578-1.0197-.5475-2.4932.1139-4.0521.6613-1.559.1734-2.4666 1.5829-3.3315 1.404-.8648 2.5912-2.5946 2.8134-3.8919.2223-1.2974 1.2089.4751 1.7131.3043.5041-.1709 1.2088-1.0838 1.2197-.7048.0108.3791-.45.8756-.2657.9076.1844.0321.824.0428 1.0625-.2722.2386-.315-.1843-1.3721-.1843-1.3721-.2168-.2242-.4228-.4431-.58-.6407-.0867-.1014-.1897-.1868-.3144-.2562-.0109 0-2.2551-.267-3.0466-.267-.7914 0-1.8106.2563-2.6834 1.575-.8727 1.324-2.2659 2.253-4.0819 4.1856-1.816 1.938-1.8215-1.5269-1.442-5.7659s.7698-1.0891.9053.9183c.0108.1815.0217.347.0325.5072-.0217-.3738-.0379-.6994-.0325-.8756.0163-.6193.3524-.5339.3686.5179.0163 1.0517.8077.8915.9975.4164.1897-.4752.065-1.7618-.0759-2.4666-.141-.7047.4553.3311.6505 1.3401.1897 1.009.2656 1.009.8186.678.5583-.331.4119-.1281.7589-.2296.3524-.1014.4445-.4591.2602-.7901-.6559-.4591-1.6534-1.1959-2.3744-1.922-.9649-.9663-1.5829-1.2226-2.3039-1.1959-.2873.3364-.5312.7368-.5312 1.1105 0 .9076-.8782.5606-1.4908 1.7298s-.8348 3.4595-1.2739 4.3244-1.4474 1.559-1.7564 1.6871 1.3173-1.0571 1.5395-2.1729c.1789-.8969.0922-1.8846-.7047-1.0411-.1247.1548-.2548.315-.3794.4805.0271-.016.0379-.0267.0379-.0267s-1.0679 2.0181-1.3281 3.3208c-.2657 1.2973-1.8974 1.8579-3.2526 2.8135-1.3552.9557-1.5395 1.5162-1.8431 3.8493-.309 2.3384-.4391 2.899.5258 3.545.9649.6513 4.7325 3.5022 6.9985 6.1396l-8.5326-5.5203c-.0163.0961-.0271.1922-.0488.2883 2.228 1.7618 8.5055 6.8123 11.2593 9.9408.1138-.0587.2277-.1121.3361-.1655l-.7481-2.301s1.2089.9663 2.6237 0c1.4149-.9663 3.7839-3.1125 3.5887-5.5791-.1951-2.4665-.0271-2.6587.8945-1.3614.9215 1.2974 2.1087 2.899 3.117 2.899s2.5912-.2883 3.2526-1.2493c.6613-.9556 1.0516-1.0891 1.2739-.6139.2223.4751 1.0517.6033 1.6263.3043.3903-.2082.8402-.3737 1.198-.7581.0651-.5392-.3144-.9397-.6342-.9664z" fill="#fba2b4"/><path d="m23.7165 36.0852c-.9649-.6514-.8348-1.2119-.5258-3.545.309-2.3384.4879-2.8936 1.8431-3.8493 1.3553-.9556 2.987-1.5162 3.2526-2.8135.2656-1.2974 1.3281-3.3208 1.3281-3.3208s-.0162.0107-.0379.0267c-.103.1388-.206.283-.2982.4325-.0108.016-.0162.0267-.0271.0427-.1301.2082-.2493.4218-.3469.6353-.6343 1.4041-1.5396 2.7495-2.7647 3.6571-1.2306.9076-2.9869 1.9487-3.5128 5.1893-.206 1.26-.206 2.6854-.4228 4.1429l8.5217 5.5417c-2.2768-2.6427-6.0389-5.4936-7.0093-6.1396z" fill="#fba2b4"/><path d="m23.7165 36.0852c-.9649-.6514-.8348-1.2119-.5258-3.545.309-2.3384.4879-2.8936 1.8431-3.8493 1.3553-.9556 2.987-1.5162 3.2526-2.8135.2656-1.2974 1.3281-3.3208 1.3281-3.3208s-.0162.0107-.0379.0267c-.103.1388-.206.283-.2982.4325-.0108.016-.0162.0267-.0271.0427-.1301.2082-.2493.4218-.3469.6353-.6343 1.4041-1.5396 2.7495-2.7647 3.6571-1.2306.9076-2.9869 1.9487-3.5128 5.1893-.206 1.26-.206 2.6854-.4228 4.1429l8.5217 5.5417c-2.2768-2.6427-6.0389-5.4936-7.0093-6.1396z" fill="url(#I)"/><path d="m49.8672 36.5065c2.8472 0 5.1553-2.2732 5.1553-5.0772 0-2.8041-2.3081-5.0772-5.1553-5.0772s-5.1553 2.2731-5.1553 5.0772c0 2.804 2.3081 5.0772 5.1553 5.0772z" fill="url(#J)" opacity=".38"/><path d="m49.6939 36.6563c2.8472 0 5.1553-2.2731 5.1553-5.0771 0-2.8041-2.3081-5.0772-5.1553-5.0772s-5.1553 2.2731-5.1553 5.0772c0 2.804 2.3081 5.0771 5.1553 5.0771z" fill="url(#K)"/><g fill="#fff" opacity=".44"><path d="m48.5663 36.0531c-.1356-.0748-.2873-.1014-.4391-.1442-.1572-.0427-.309-.0961-.4554-.1548-.2981-.1174-.58-.3203-.824-.5178-.2656-.2136-.4879-.4645-.6993-.7315-.2222-.2776-.4499-.5552-.6288-.8595-.103-.1709-.1897-.3524-.2548-.5392-.0596-.1816-.0813-.3791-.1463-.5606-.0217-.0587-.0922-.0534-.1139 0-.1355.3203.0217.7367.1626 1.0304.1627.3417.3958.646.6289.9396.2276.2883.4607.5766.7535.8115.2656.2136.5583.3844.8782.5125.1789.0694.3523.1442.5366.2029s.3849.1228.5801.1015c.0379-.0054.065-.0641.0217-.0908z" opacity=".44"/><path d="m52.3067 27.5212c-.0217-.1175-.1843-.1922-.2819-.2456-.1247-.0694-.2548-.1335-.3957-.1708-.0271-.0107-.0596 0-.0813.0213-.0109.0107-.0217.0214-.0217.0427-.0054.0641.0379.0908.0867.1282.0705.0534.1464.0961.2223.1388.1138.064.2873.2082.4283.1655.0325-.016.0487-.0481.0433-.0801z" opacity=".44"/><path d="m54.2964 29.9506c-.1085-.2723-.2277-.5339-.3795-.7795-.1518-.2402-.3198-.4698-.5096-.6833-.0975-.1068-.1951-.2136-.3035-.3044-.103-.0907-.2114-.1868-.347-.2295-.0487-.016-.0867.0427-.065.0801.065.1174.168.2028.2602.2989.0976.1015.1951.1976.2819.299.1789.2029.3415.4271.4824.6567.141.2295.2711.4698.3686.7207.0976.2456.141.5232.3036.7421.0163.0214.0542.0214.0651-.0107.0542-.2669-.0597-.5392-.1572-.7901z" opacity=".44"/><path d="m47.6177 27.2919c.1084-.0107.2114-.0107.3199-.0321.0975-.016.206-.0267.2764-.1014.0326-.032.0163-.0801-.0271-.0961-.1897-.0748-.4282.0907-.58.1869-.0163.0106-.0109.0427.0108.0427z" opacity=".44"/><path d="m48.6314 26.9609c-.0597-.016-.141-.0053-.179.0481-.0108.016-.0054.0427.0055.0587.0488.0427.1301.0321.1843 0 .0488-.0267.0434-.0908-.0108-.1068z" opacity=".44"/><path d="m53.7921 33.8747c-.1355.1228-.2169.315-.3199.4645-.1138.1655-.2385.315-.3794.4538-.141.1335-.2928.267-.4391.3898-.141.1174-.3036.2295-.4012.3844-.0108.016.0055.032.0217.0267.2006-.0374.3686-.1709.5313-.2883.1572-.1175.3144-.2456.4553-.3791.141-.1388.2657-.2883.3687-.4538.1029-.1602.2385-.3524.271-.5392-.0054-.0588-.0651-.1015-.1084-.0588z" opacity=".44"/></g><path d="m59.8687 22.327s1.6045-.0267 2.396-.598l1.3823 13.4858s-.336.9076-2.5749 1.0731z" fill="url(#L)"/><path d="m49.6937 35.8926c2.3533 0 4.2609-1.8787 4.2609-4.1963 0-2.3175-1.9076-4.1963-4.2609-4.1963-2.3532 0-4.2608 1.8788-4.2608 4.1963 0 2.3176 1.9076 4.1963 4.2608 4.1963z" fill="url(#M)"/><path d="m19.8733 57.0025c3.7188 1.6603 10.0396 3.1285 16.7995-1.0838s3.8651-11.9963 3.8651-11.9963 2.0166 6.9671-3.8651 10.3252c-7.5947 4.3351-14.5227.8649-14.5227.8649z" fill="url(#N)"/><path d="m46.7665 30.0096 5.242-.4698c.1518-.0107.2819.0961.2927.2402l.3144 3.2834c.0163.1495-.0975.2776-.2439.2937l-5.3071.4698c-.1518.016-.2819-.0961-.2981-.2456l-.2494-3.2834c-.0108-.1441.0976-.2723.2494-.2883z" fill="url(#O)" opacity=".36"/><path d="m52.5615 32.5028-.1193-1.2493c-.271-.7581-.8944-1.3561-1.675-1.6016l-2.0437.1815c-.824.4378-1.3878 1.292-1.3878 2.2796 0 .6193.2223 1.1906.5909 1.6391l4.3313-.3844c.1518-.2616.2548-.5553.3036-.8649z" fill="url(#P)"/><path d="m47.8832 31.1411c.3174 0 .5746-.2534.5746-.5659 0-.3126-.2572-.5659-.5746-.5659-.3173 0-.5746.2533-.5746.5659 0 .3125.2573.5659.5746.5659z" fill="#fff"/><path d="m36.0818 47.2217-2.2009.71c-.3632.1121-.7643 0-1.0137-.2883-1.9082-2.2156-10.354-11.5158-20.0846-14.4788-11.06961-3.3741-8.69523 6.6842-8.69523 6.6842s-1.97865-6.5561 2.63458-8.4353c4.54815-1.8579 17.31995 2.7281 28.49255 15.4344.1518.1709.4499.4165.8673.3738z" fill="url(#Q)"/></svg>